<svg xmlns="http://www.w3.org/2000/svg" xmlns:xlink="http://www.w3.org/1999/xlink" width="2000" height="600" viewBox="0 0 2000 600">
  <defs>
    <linearGradient id="a" x1="737.02" y1="276.1" x2="737.02" y2="273.4" gradientUnits="userSpaceOnUse">
      <stop offset="0" stop-color="#0c1c2a" stop-opacity="0"/>
      <stop offset="1" stop-color="#0c1c2a"/>
    </linearGradient>
    <linearGradient id="b" x1="879.15" y1="276.1" x2="879.15" y2="274.2" xlink:href="#a"/>
    <linearGradient id="c" x1="598.12" y1="276.1" x2="598.12" y2="274.2" xlink:href="#a"/>
    <linearGradient id="d" x1="1213.65" y1="276.1" x2="1213.65" y2="275" xlink:href="#a"/>
    <linearGradient id="e" x1="1333.17" y1="276.1" x2="1333.17" y2="212.63" gradientUnits="userSpaceOnUse">
      <stop offset="0" stop-color="#0c1c2a"/>
      <stop offset="0.08" stop-color="#0c1c2a" stop-opacity="0.9"/>
      <stop offset="0.66" stop-color="#0c1c2a" stop-opacity="0.24"/>
      <stop offset="1" stop-color="#0c1c2a" stop-opacity="0"/>
    </linearGradient>
    <linearGradient id="f" x1="1100.18" y1="276.1" x2="1100.18" y2="276" xlink:href="#a"/>
    <linearGradient id="g" x1="903.63" y1="392" x2="903.63" y2="374.4" gradientUnits="userSpaceOnUse">
      <stop offset="0" stop-color="#0c1c2a"/>
      <stop offset="1" stop-color="#0c1c2a" stop-opacity="0"/>
    </linearGradient>
    <linearGradient id="h" x1="845.13" y1="392" x2="845.13" y2="374.4" xlink:href="#g"/>
    <linearGradient id="i" x1="1000" y1="392" x2="1000" y2="294" xlink:href="#g"/>
  </defs>
  <title>antipode-reveal</title>
  <g>
    <g>
      <path d="M1111.7,182.1a21.1,21.1,0,0,0-11.7-3.3,22,22,0,0,0-11.9,3.3,21.6,21.6,0,0,0-8.2,9.4,32.6,32.6,0,0,0-2.9,13.9,30.5,30.5,0,0,0,2.9,13.5,22.2,22.2,0,0,0,8.2,9.2,22,22,0,0,0,11.9,3.3,21.1,21.1,0,0,0,11.7-3.3,21.9,21.9,0,0,0,7.9-9.3,31.8,31.8,0,0,0,2.8-13.8,31,31,0,0,0-2.8-13.7A22.2,22.2,0,0,0,1111.7,182.1Z" fill="#0c1c2a"/>
      <path d="M1226.3,181.3a19.6,19.6,0,0,0-11.1-3.3,19.2,19.2,0,0,0-11.2,3.3,20.7,20.7,0,0,0-7.4,9.4,36.5,36.5,0,0,0-2.6,14.1,34.3,34.3,0,0,0,2.7,14.2,21.5,21.5,0,0,0,7.4,9.2,19.3,19.3,0,0,0,11.1,3.2,20.3,20.3,0,0,0,11.1-3.2,19.7,19.7,0,0,0,7.5-9.2,40.4,40.4,0,0,0,0-28.5A20.7,20.7,0,0,0,1226.3,181.3Z" fill="#0c1c2a"/>
      <path d="M1350,190.8a21.1,21.1,0,0,0-7.9-9.2,21.8,21.8,0,0,0-11.7-3.2,20.2,20.2,0,0,0-11.5,3.3,22.2,22.2,0,0,0-7.7,9.3,31.8,31.8,0,0,0-2.8,13.8,30.5,30.5,0,0,0,2.8,13.5,22.8,22.8,0,0,0,7.8,9.2,20.1,20.1,0,0,0,11.4,3.3,21.8,21.8,0,0,0,11.7-3.2,20.8,20.8,0,0,0,7.9-9.3,33.2,33.2,0,0,0,2.8-14.1A30.9,30.9,0,0,0,1350,190.8Z" fill="#0c1c2a"/>
      <path d="M754.6,215.4v-3c-11.1-.7-19.5-.2-25.4,1.6s-9.4,4.9-9.4,9.2a8.6,8.6,0,0,0,4.3,7.7,18.4,18.4,0,0,0,9.9,2.7,24,24,0,0,0,10.3-2.1,18.6,18.6,0,0,0,7.4-6.2A16.8,16.8,0,0,0,754.6,215.4Z" fill="#0c1c2a"/>
      <path d="M1447.2,177.8q-9.7,0-15.3,7.2a27.6,27.6,0,0,0-4.9,12.6h39c-.1-6.5-1.9-11.5-5.3-14.8S1452.8,177.8,1447.2,177.8Z" fill="#0c1c2a"/>
    </g>
    <g>
      <path d="M753.6,312.6v-3c-11.1-.7-19.5-.2-25.4,1.6s-9.4,4.9-9.4,9.2a8.6,8.6,0,0,0,4.3,7.7,18.4,18.4,0,0,0,9.9,2.7,24,24,0,0,0,10.3-2.1,18.6,18.6,0,0,0,7.4-6.2A16.8,16.8,0,0,0,753.6,312.6Z" fill="#0c1c2a"/>
      <path d="M1090.8,257.4a31.2,31.2,0,0,1,8.3-3.8,30.1,30.1,0,0,1-8.8-3.8,33,33,0,0,1-10.3-10.4v29.4A32.8,32.8,0,0,1,1090.8,257.4Z" fill="#0c1c2a"/>
      <path d="M1213.6,275q-9.9,0-15.3,7.2a26.5,26.5,0,0,0-4.9,12.6h39c-.2-6.5-1.9-11.5-5.3-14.8S1219.2,275,1213.6,275Z" fill="#0c1c2a"/>
      <path d="M1111.9,279.3a21.1,21.1,0,0,0-11.7-3.3,22,22,0,0,0-11.9,3.3,21,21,0,0,0-8.2,9.4,31.2,31.2,0,0,0-2.9,13.9,29.2,29.2,0,0,0,2.9,13.5,21.5,21.5,0,0,0,8.2,9.2,22,22,0,0,0,11.9,3.3,21.1,21.1,0,0,0,11.7-3.3,21.9,21.9,0,0,0,7.9-9.3,33.3,33.3,0,0,0,2.8-13.8,32.5,32.5,0,0,0-2.8-13.7A22.2,22.2,0,0,0,1111.9,279.3Z" fill="#0c1c2a"/>
      <path d="M752.6,409.8v-2.9c-11-.7-19.5-.2-25.4,1.5s-9.4,5-9.4,9.2a8.6,8.6,0,0,0,4.3,7.7A18.4,18.4,0,0,0,732,428a24,24,0,0,0,10.3-2.1,17.8,17.8,0,0,0,7.4-6.2A16.1,16.1,0,0,0,752.6,409.8Z" fill="#0c1c2a"/>
    </g>
    <path d="M730,274.8a11.6,11.6,0,0,0-2.2,1.3h18.5a14.9,14.9,0,0,0-9.1-2.7A18.1,18.1,0,0,0,730,274.8Z" fill="url(#a)"/>
    <path d="M870.1,276.1h18.1a25.9,25.9,0,0,0-9.8-1.9A16.2,16.2,0,0,0,870.1,276.1Z" fill="url(#b)"/>
    <path d="M589.1,276.1h18a25.4,25.4,0,0,0-9.7-1.9A16.2,16.2,0,0,0,589.1,276.1Z" fill="url(#c)"/>
    <path d="M1206.6,276.1h14.1a23,23,0,0,0-7.1-1.1A21.9,21.9,0,0,0,1206.6,276.1Z" fill="url(#d)"/>
    <g opacity="0.8">
      <path d="M656.3,212.6v63.5h38.4a29,29,0,0,1,4.4-9,33.3,33.3,0,0,1,15.4-11.3,65.8,65.8,0,0,1,23.3-3.8c13.3,0,23.8,3,31.4,8.9a28.4,28.4,0,0,1,10.1,15.2h59.5a24.4,24.4,0,0,1,4.8-10.9,30.7,30.7,0,0,1,13.9-9.8,57,57,0,0,1,19.5-3.2,64.5,64.5,0,0,1,15.8,1.9,50.2,50.2,0,0,1,14,5.7,27.9,27.9,0,0,1,9.6,9l-8,7.3H934V253.6h29.8v22.5h33V253.2h29.8v22.9h23.8V253.6h27.4v19.6a7.7,7.7,0,0,1,.7-1.6,33.3,33.3,0,0,1,12.3-14.2,32.9,32.9,0,0,1,18.6-5.2,38.8,38.8,0,0,1,21.9,6.4,44.9,44.9,0,0,1,15.2,17.5h24.2a45.6,45.6,0,0,1,17.7-17.7,50.5,50.5,0,0,1,25.4-6.4c9.4,0,17.6,2,24.5,5.9a41.5,41.5,0,0,1,16,16.2c.3.7.7,1.3,1,2H1278V253.6h28.8v20.8h.8l.9-2.6a35.6,35.6,0,0,1,9.5-14.5,19.7,19.7,0,0,1,13.2-5.3,16.8,16.8,0,0,1,4,.5l2.8.9v22.7h672V212.6Z" fill="url(#e)"/>
    </g>
    <path d="M1098.1,276.1h0Z" fill="url(#f)"/>
    <g opacity="0.75">
      <path d="M630.1,340.5a43.1,43.1,0,0,1,2.7-13.1,24.5,24.5,0,0,1,5.1-8.2,19.9,19.9,0,0,0-3.3-9.1,30.2,30.2,0,0,0-9.2-8.5,77.2,77.2,0,0,0-14.6-6.8l-3.4-1.4a8.4,8.4,0,0,1-2.4-.7l-2.2-.9a83.7,83.7,0,0,1-12.9-5.3c-2.7-1.5-4.1-3.4-4.1-5.5s1.1-3.6,3.3-4.9a16.2,16.2,0,0,1,8.3-1.9,27.1,27.1,0,0,1,11.4,2.6,27.6,27.6,0,0,1,9.6,7.4l17-15.4a29.8,29.8,0,0,0-9.6-9,50.2,50.2,0,0,0-14-5.7,65,65,0,0,0-15.8-1.9,57,57,0,0,0-19.5,3.2,30.7,30.7,0,0,0-13.9,9.8,23.9,23.9,0,0,0-5.2,15.4,20.5,20.5,0,0,0,6.6,15.7c4.4,4.1,11.1,7.7,20.2,10.9a19.2,19.2,0,0,0,3.5,1.8l3.5,1.6a97.1,97.1,0,0,1,13.5,5.3c2.9,1.5,4.3,3.4,4.3,5.7a5.9,5.9,0,0,1-3.2,5.1,15.6,15.6,0,0,1-8.2,1.9,30.6,30.6,0,0,1-14-3.5,33.2,33.2,0,0,1-11.4-9.7l-18.2,17a40.8,40.8,0,0,0,12,11,58.1,58.1,0,0,0,15.2,6.5,64.1,64.1,0,0,0,16.4,2.1,54,54,0,0,0,20.6-3.8A37.1,37.1,0,0,0,630.1,340.5Z" fill="#fff"/>
      <path d="M769.2,260.9c-7.6-5.9-18.1-8.9-31.4-8.9a65.8,65.8,0,0,0-23.3,3.8,33.3,33.3,0,0,0-15.4,11.3,28.9,28.9,0,0,0-5.5,17.7h30.2a11.6,11.6,0,0,1,1.5-6,9.8,9.8,0,0,1,4.7-4,18.1,18.1,0,0,1,7.2-1.4q6.6,0,10.5,3.9c2.6,2.6,3.9,6.2,3.9,10.9V294c-20.4-.7-35.7,1.2-45.7,5.9s-16.1,12.9-16.1,23.7c0,8.8,3.1,15.7,9.2,20.8a33.7,33.7,0,0,0,18.2,7.4,68.2,68.2,0,0,1,19.5-2.6l1.8-.8a34.1,34.1,0,0,0,12-9.1,19.4,19.4,0,0,0,4.1-7.9h.4v19h25.6V286.6C780.6,275.4,776.8,266.8,769.2,260.9Zm-25.9,67.8a24,24,0,0,1-10.3,2.1,18.4,18.4,0,0,1-9.9-2.7,8.6,8.6,0,0,1-4.3-7.7c0-4.3,3.1-7.3,9.4-9.2s14.3-2.3,25.4-1.6v3a16.8,16.8,0,0,1-2.9,9.9A18.6,18.6,0,0,1,743.3,328.7Z" fill="#fff"/>
      <path d="M886.8,326.7a15.3,15.3,0,0,1-8.2,1.9,30.9,30.9,0,0,1-14-3.5,33.2,33.2,0,0,1-11.4-9.7l-18.2,17a40.8,40.8,0,0,0,12,11,58.7,58.7,0,0,0,12.8,5.8,27.8,27.8,0,0,1,11.7,2.4,55.3,55.3,0,0,0,7.1.4,54,54,0,0,0,20.6-3.8,34.1,34.1,0,0,0,14.5-10.6,24.5,24.5,0,0,0,5.3-15.8,19.9,19.9,0,0,0-3.4-11.7,29.1,29.1,0,0,0-9.2-8.5,74.3,74.3,0,0,0-14.6-6.8l-3.4-1.4a8.4,8.4,0,0,1-2.4-.7l-2.2-.9a93.4,93.4,0,0,1-12.9-5.3c-2.7-1.5-4.1-3.4-4.1-5.5s1.1-3.6,3.3-4.9a16.2,16.2,0,0,1,8.3-1.9,27.1,27.1,0,0,1,11.4,2.6,25.9,25.9,0,0,1,9.6,7.4l17-15.4a27.9,27.9,0,0,0-9.6-9,50.2,50.2,0,0,0-14-5.7,64.5,64.5,0,0,0-15.8-1.9,57,57,0,0,0-19.5,3.2,30.7,30.7,0,0,0-13.9,9.8,24.5,24.5,0,0,0-5.2,15.4,20.5,20.5,0,0,0,6.6,15.7c4.4,4.1,11.2,7.7,20.2,10.9a23.1,23.1,0,0,0,3.5,1.8l3.5,1.6a87.7,87.7,0,0,1,13.5,5.3c2.9,1.5,4.3,3.4,4.3,5.7A5.7,5.7,0,0,1,886.8,326.7Z" fill="#fff"/>
      <g>
        <path d="M969.6,350.8h5.2a29.6,29.6,0,0,0,7.6-3.1,28.9,28.9,0,0,0,10.2-10.1H969.2V322.9l-.9-.9c-2.8-3.1-4.3-7.4-4.5-13V253.6H934v58c0,13.3,2.9,23.4,8.6,30.2S956,352,965.4,352l4.2-.2Z" fill="#fff"/>
        <path d="M999.8,313.2v24.4h-3v12.8h26.6V313.2h3.2v-60H996.8v54.2a22,22,0,0,1-.7,5.8Z" fill="#fff"/>
      </g>
      <path d="M506.4,216H537v24.4H506.4Zm30.2,134.4H506.8V253.6h29.8Z" fill="#fff"/>
      <path d="M1217.4,352a60.2,60.2,0,0,1-27.3-6,44.2,44.2,0,0,1-18.9-17.4c-4.6-7.6-6.8-16.4-6.8-26.4s2.1-18.6,6.3-26.1a45.6,45.6,0,0,1,17.7-17.7,50.5,50.5,0,0,1,25.4-6.4c9.4,0,17.6,2,24.5,5.9a41.5,41.5,0,0,1,16,16.2,47.1,47.1,0,0,1,5.7,23.1,86.3,86.3,0,0,1-1,12.8h-68.6V294.8h42c-.2-6.5-1.9-11.5-5.3-14.8s-7.9-5-13.5-5-11.7,2.4-15.3,7.2-5.5,11.5-5.5,20.2a35.7,35.7,0,0,0,3,14.8,18.1,18.1,0,0,0,8.1,8.9A24.9,24.9,0,0,0,1216,329a31.9,31.9,0,0,0,14-3,27.1,27.1,0,0,0,9.8-7.6l15.6,18.4q-5.2,6.4-15.3,10.8A57.1,57.1,0,0,1,1217.4,352Z" fill="#fff"/>
      <path d="M1278,253.6h28.8v20.8h3l-4.8,17.8a55.3,55.3,0,0,1,3.5-20.4,35.6,35.6,0,0,1,9.5-14.5,19.7,19.7,0,0,1,13.2-5.3,16.8,16.8,0,0,1,4,.5l2.8.9v29.2h-1a28.7,28.7,0,0,0-6.4-.8c-5.4,0-9.8,1.3-13.3,4a22.7,22.7,0,0,0-7.8,10.1,33.3,33.3,0,0,0-2.5,12.9v41.8h-29Z" fill="#fff"/>
      <path d="M1146.7,276.5a45.1,45.1,0,0,0-15.4-17.9,38.8,38.8,0,0,0-21.9-6.4,32.9,32.9,0,0,0-18.6,5.2,33.3,33.3,0,0,0-12.3,14.2,7.7,7.7,0,0,0-.7,1.6V253.6h-27.4v59.6h2.8V384h25.5l-13.3-33.2h14.8V336.6a33,33,0,0,0,10.3,10.4,33.9,33.9,0,0,0,18.5,5,40.4,40.4,0,0,0,22.1-6.3,43.1,43.1,0,0,0,15.6-17.8,60.8,60.8,0,0,0,0-51.4ZM1119.8,316a21.9,21.9,0,0,1-7.9,9.3,21.1,21.1,0,0,1-11.7,3.3,22,22,0,0,1-11.9-3.3,21.5,21.5,0,0,1-8.2-9.2,29.2,29.2,0,0,1-2.9-13.5,31.2,31.2,0,0,1,2.9-13.9,21,21,0,0,1,8.2-9.4,22,22,0,0,1,11.9-3.3,21.1,21.1,0,0,1,11.7,3.3,22.2,22.2,0,0,1,7.9,9.2,32.5,32.5,0,0,1,2.8,13.7A33.3,33.3,0,0,1,1119.8,316Z" fill="#fff"/>
    </g>
    <g opacity="0.5">
      <path d="M914.1,379a12.7,12.7,0,0,0-10.3-4.6,13.3,13.3,0,0,0-10,4.1c-2.5,2.7-4,6.6-4.6,11.5v2H918C918,386.4,916.7,382.1,914.1,379Z" fill="url(#g)"/>
      <path d="M857.7,382.8a13.7,13.7,0,0,0-4.8-6.2,11.5,11.5,0,0,0-7.1-2.2,13.3,13.3,0,0,0-10.2,4.2c-2.5,2.8-4,6.5-4.6,11.2a5,5,0,0,0-.2,1.2v1h28.6A22.2,22.2,0,0,0,857.7,382.8Z" fill="url(#h)"/>
      <path d="M-10,294v98H630V373.6H613.4V350.8H630v-8a46,46,0,0,1,2.8-15.4c1.9-5.1,5.5-9.4,10.7-13.1s12.6-5.5,21.9-5.5l7.9.2a61.7,61.7,0,0,1,6.7.6l2.6.2v24l-1.3-.3h-1.5a35.3,35.3,0,0,0-7.2-.8c-4.9,0-8.2,1.3-10,3.8a18.5,18.5,0,0,0-2.8,9.6v4.8h22.6v22.8H659.8V392h65.1a160.3,160.3,0,0,1,25.7-.8v-5.8c0-4.7-1.3-8.3-3.9-10.9s-6.1-3.9-10.5-3.9A18.9,18.9,0,0,0,729,372a9.8,9.8,0,0,0-4.7,4,11.6,11.6,0,0,0-1.5,6H692.6a29.6,29.6,0,0,1,5.5-17.7A33.3,33.3,0,0,1,713.5,353a65.8,65.8,0,0,1,23.3-3.8c13.4,0,23.8,3,31.4,8.9s11.4,14.5,11.4,25.7V392H801V350.8h29.8v20.4h.3a30.3,30.3,0,0,1,2.6-6.1,31.4,31.4,0,0,1,11.5-11.9,28.5,28.5,0,0,1,14.4-4,28.1,28.1,0,0,1,14.6,3.8,27.6,27.6,0,0,1,10.4,11,31.7,31.7,0,0,1,2.5,5.9,25.7,25.7,0,0,1,2.5-5.3,32.3,32.3,0,0,1,12.1-11.4,32.7,32.7,0,0,1,15.7-4,26.5,26.5,0,0,1,15.3,4.5,29.4,29.4,0,0,1,10.5,12.7c2.6,5.5,4,12.2,4.4,20.2a8.6,8.6,0,0,1,.2,2.2V392h21.8V350.8h29.8V392h24V313.2h29.8V392h28.7l-16.5-41.2h31.2L1111,392h15.2l13.4-41.2H1170L1153.8,392H2010V294ZM999.8,337.6H969.2V313.2h30.6Z" fill="url(#i)"/>
    </g>
    <g>
      <path d="M613.4,350.8h69v22.8h-69Zm16.6-8a46,46,0,0,1,2.8-15.4c1.9-5.1,5.5-9.4,10.7-13.1s12.6-5.5,21.9-5.5l7.9.2a61.7,61.7,0,0,1,6.7.6l2.6.2v24l-1.3-.3h-1.5a35.3,35.3,0,0,0-7.2-.8c-4.9,0-8.2,1.3-10,3.8a18.5,18.5,0,0,0-2.8,9.6V447.6H630Z" fill="#fff"/>
      <path d="M720.8,449.2c-9,0-16.6-2.5-22.8-7.6s-9.2-12-9.2-20.8c0-10.8,5.4-18.7,16.1-23.7s27.4-6.9,49.9-5.7V407c-12.1-.9-21.3-.5-27.6,1.4s-9.4,4.9-9.4,9.2a8.8,8.8,0,0,0,4.3,7.7A18.4,18.4,0,0,0,732,428a24,24,0,0,0,10.3-2.1,18.6,18.6,0,0,0,7.4-6.2,16.1,16.1,0,0,0,2.9-9.9v-8.6l-2-4.4V385.4c0-4.7-1.3-8.3-3.9-10.9s-6.1-3.9-10.5-3.9A18.9,18.9,0,0,0,729,372a9.8,9.8,0,0,0-4.7,4,11.6,11.6,0,0,0-1.5,6H692.6a29.6,29.6,0,0,1,5.5-17.7A33.3,33.3,0,0,1,713.5,353a65.8,65.8,0,0,1,23.3-3.8c13.4,0,23.8,3,31.4,8.9s11.4,14.5,11.4,25.7v63.8H754v-19h-4.6l4.6-3c0,3.6-1.5,7.2-4.5,10.9a34.1,34.1,0,0,1-12,9.1A37.9,37.9,0,0,1,720.8,449.2Z" fill="#fff"/>
      <path d="M801,350.8h29.8v20.4h5.8L829.2,384q0-11,4.5-18.9a31.4,31.4,0,0,1,11.5-11.9,28.5,28.5,0,0,1,14.4-4,28.1,28.1,0,0,1,14.6,3.8,27.6,27.6,0,0,1,10.4,11c2.7,4.8,4,10.8,4,18h-3.8a34.7,34.7,0,0,1,4.8-17.4,32.3,32.3,0,0,1,12.1-11.4,32.7,32.7,0,0,1,15.7-4,26.5,26.5,0,0,1,15.3,4.5,29.4,29.4,0,0,1,10.5,12.7c2.6,5.5,4,12.2,4.4,20.2a8.6,8.6,0,0,1,.2,2.2v58.8H918V392c0-5.6-1.3-9.9-3.9-13a12.7,12.7,0,0,0-10.3-4.6,13.3,13.3,0,0,0-10,4.1c-2.5,2.7-4,6.6-4.6,11.5v57.6H859.4V392a22.2,22.2,0,0,0-1.7-9.2,13.7,13.7,0,0,0-4.8-6.2,11.5,11.5,0,0,0-7.1-2.2,13.3,13.3,0,0,0-10.2,4.2c-2.5,2.8-4,6.5-4.6,11.2a5,5,0,0,0-.2,1.2v1l-.2,55.6H801Z" fill="#fff"/>
      <path d="M969.2,313.2h30.6v24.4H969.2Zm30.2,134.4H969.6V350.8h29.8Z" fill="#fff"/>
      <path d="M1023.4,313.2h29.8V447.6h-29.8Z" fill="#fff"/>
      <path d="M1103,444.6l-37.6-93.8h31.2l21.8,62.6h.8l20.4-62.6H1170l-51.4,130.4h-29.8Z" fill="#fff"/>
    </g>
    <path d="M-10-.5v601H2010V-.5ZM996.4,118.8H1027v24.4H996.4ZM536.6,350.4H506.8V253.6h29.8Zm.4-110H506.4V216H537Zm145.6,93.4-1.3-.3h-1.5a35.3,35.3,0,0,0-7.2-.8c-4.9,0-8.2,1.3-10,3.8a18.5,18.5,0,0,0-2.8,9.6v4.8h22.6v22.8H659.8v74H630v-74H613.4V350.8H630v-8c0-.8.1-1.5.1-2.3a37.1,37.1,0,0,1-11.9,7.7,54,54,0,0,1-20.6,3.8,64.1,64.1,0,0,1-16.4-2.1,58.1,58.1,0,0,1-15.2-6.5,40.8,40.8,0,0,1-12-11l18.2-17a33.2,33.2,0,0,0,11.4,9.7,30.6,30.6,0,0,0,14,3.5,15.6,15.6,0,0,0,8.2-1.9,5.9,5.9,0,0,0,3.2-5.1c0-2.3-1.4-4.2-4.3-5.7a97.1,97.1,0,0,0-13.5-5.3l-3.5-1.6a19.2,19.2,0,0,1-3.5-1.8c-9.1-3.2-15.8-6.8-20.2-10.9a20.5,20.5,0,0,1-6.6-15.7,23.9,23.9,0,0,1,5.2-15.4,30.7,30.7,0,0,1,13.9-9.8,57,57,0,0,1,19.5-3.2,65,65,0,0,1,15.8,1.9,50.2,50.2,0,0,1,14,5.7,29.8,29.8,0,0,1,9.6,9l-17,15.4a27.6,27.6,0,0,0-9.6-7.4,27.1,27.1,0,0,0-11.4-2.6,16.2,16.2,0,0,0-8.3,1.9c-2.2,1.3-3.3,2.9-3.3,4.9s1.4,4,4.1,5.5a83.7,83.7,0,0,0,12.9,5.3l2.2.9a8.4,8.4,0,0,0,2.4.7l3.4,1.4a77.2,77.2,0,0,1,14.6,6.8,30.2,30.2,0,0,1,9.2,8.5,19.9,19.9,0,0,1,3.3,9.1,33.9,33.9,0,0,1,5.6-4.9c5.3-3.7,12.6-5.5,21.9-5.5l7.9.2a61.7,61.7,0,0,1,6.7.6l2.6.2Zm99-80.6H756v-19h-.4a19.4,19.4,0,0,1-4.1,7.9,34.1,34.1,0,0,1-12,9.1l-1.8.8h.1c13.3,0,23.8,3,31.4,8.9s11.4,14.5,11.4,25.7v63.8H755v-19h-.4a19.4,19.4,0,0,1-4.1,7.9,34.1,34.1,0,0,1-12,9.1l-1.8.8h.1c13.4,0,23.8,3,31.4,8.9s11.4,14.5,11.4,25.7v63.8H754v-19h-.3a19.7,19.7,0,0,1-4.2,7.9,34.1,34.1,0,0,1-12,9.1,37.9,37.9,0,0,1-16.7,3.6c-9,0-16.6-2.5-22.8-7.6s-9.2-12-9.2-20.8c0-10.8,5.4-18.7,16.1-23.7s25.3-6.6,45.7-5.9v-5.8c0-4.7-1.3-8.3-3.9-10.9s-6.1-3.9-10.5-3.9A18.9,18.9,0,0,0,729,372a9.8,9.8,0,0,0-4.7,4,11.6,11.6,0,0,0-1.5,6H692.6a29.6,29.6,0,0,1,5.5-17.7A33.3,33.3,0,0,1,713.5,353a26.5,26.5,0,0,1,3.7-1.2,33.7,33.7,0,0,1-18.2-7.4c-6.1-5.1-9.2-12-9.2-20.8,0-10.8,5.4-18.7,16.1-23.7s25.3-6.6,45.7-5.9v-5.8c0-4.7-1.3-8.3-3.9-10.9s-6.1-3.9-10.5-3.9a18.1,18.1,0,0,0-7.2,1.4,9.8,9.8,0,0,0-4.7,4,11.6,11.6,0,0,0-1.5,6H693.6a28.9,28.9,0,0,1,5.5-17.7,33.3,33.3,0,0,1,15.4-11.3,22.9,22.9,0,0,1,3.7-1.2,33.7,33.7,0,0,1-18.2-7.4c-6.1-5.1-9.2-12-9.2-20.8,0-10.8,5.4-18.7,16.1-23.7s25.3-6.6,45.7-5.9V191c0-4.7-1.3-8.3-3.9-10.9s-6.1-3.9-10.5-3.9a18.1,18.1,0,0,0-7.2,1.4,9.8,9.8,0,0,0-4.7,4,11.6,11.6,0,0,0-1.5,6H694.6a28.9,28.9,0,0,1,5.5-17.7,33.3,33.3,0,0,1,15.4-11.3,65.8,65.8,0,0,1,23.3-3.8c13.3,0,23.8,3,31.4,8.9s11.4,14.5,11.4,25.7ZM947.8,447.6H918V392c0-5.6-1.3-9.9-3.9-13a12.7,12.7,0,0,0-10.3-4.6,13.3,13.3,0,0,0-10,4.1c-2.5,2.7-4,6.6-4.6,11.5v57.6H859.4V392a22.2,22.2,0,0,0-1.7-9.2,13.7,13.7,0,0,0-4.8-6.2,11.5,11.5,0,0,0-7.1-2.2,13.3,13.3,0,0,0-10.2,4.2c-2.5,2.8-4,6.5-4.6,11.2a5,5,0,0,0-.2,1.2v1l-.2,55.6H801V350.8h29.8v20.4h.3a30.3,30.3,0,0,1,2.6-6.1,31.4,31.4,0,0,1,11.5-11.9,28.5,28.5,0,0,1,14.4-4h.2a58.7,58.7,0,0,1-12.8-5.8,40.8,40.8,0,0,1-12-11l18.2-17a33.2,33.2,0,0,0,11.4,9.7,30.9,30.9,0,0,0,14,3.5,15.3,15.3,0,0,0,8.2-1.9,5.7,5.7,0,0,0,3.2-5.1c0-2.3-1.4-4.2-4.3-5.7a87.7,87.7,0,0,0-13.5-5.3l-3.5-1.6a23.1,23.1,0,0,1-3.5-1.8c-9-3.2-15.8-6.8-20.2-10.9a20.5,20.5,0,0,1-6.6-15.7,24.5,24.5,0,0,1,5.2-15.4,30.7,30.7,0,0,1,13.9-9.8,44,44,0,0,1,8.3-2.2V197.8c-.1-5.6-1.6-9.9-4.5-13a14.6,14.6,0,0,0-11.3-4.6,16.3,16.3,0,0,0-9,2.4,17,17,0,0,0-6,6.9,21.8,21.8,0,0,0-2.2,9.9v53.8H803V156.4h29.8v21.2h.2a48.9,48.9,0,0,1,1.9-4.6c3.1-6.4,7.2-11,12.3-13.9a33.6,33.6,0,0,1,17-4.3q14.3,0,22.8,10.2c5.7,6.8,8.6,16.9,8.6,30.2v58h-7.1l4.3.9a50.2,50.2,0,0,1,14,5.7,27.9,27.9,0,0,1,9.6,9l-17,15.4a25.9,25.9,0,0,0-9.6-7.4,27.1,27.1,0,0,0-11.4-2.6,16.2,16.2,0,0,0-8.3,1.9c-2.2,1.3-3.3,2.9-3.3,4.9s1.4,4,4.1,5.5a93.4,93.4,0,0,0,12.9,5.3l2.2.9a8.4,8.4,0,0,0,2.4.7l3.4,1.4a74.3,74.3,0,0,1,14.6,6.8,29.1,29.1,0,0,1,9.2,8.5,19.9,19.9,0,0,1,3.4,11.7,24.5,24.5,0,0,1-5.3,15.8,34.1,34.1,0,0,1-14.5,10.6,54,54,0,0,1-20.6,3.8,55.3,55.3,0,0,1-7.1-.4l2.7,1.4a27.6,27.6,0,0,1,10.4,11,31.7,31.7,0,0,1,2.5,5.9,25.7,25.7,0,0,1,2.5-5.3,32.3,32.3,0,0,1,12.1-11.4,32.7,32.7,0,0,1,15.7-4,26.5,26.5,0,0,1,15.3,4.5,29.4,29.4,0,0,1,10.5,12.7c2.6,5.5,4,12.2,4.4,20.2a8.6,8.6,0,0,1,.2,2.2Zm170.8,33.6h-29.8l14.2-36.6L1078.7,384h-25.5v63.6h-29.8V350.4H996.8V337.6h-4.2a28.9,28.9,0,0,1-10.2,10.1,29.6,29.6,0,0,1-7.6,3.1h24.6v96.8H969.6V351.8l-4.2.2q-14.1,0-22.8-10.2c-5.7-6.8-8.6-16.9-8.6-30.2v-58h16c-5.1-1-9.2-2.6-12.4-5-5.3-4-8.8-8.7-10.3-14.1a69.8,69.8,0,0,1-2.3-18.7V179.2H908.4V156.4H925V125.2h29.8v31.2h22.8v22.8H954.8v36a21.6,21.6,0,0,0,2.6,11c1.7,2.9,5.5,4.4,11.4,4.4a53.5,53.5,0,0,0,8.4-.6v23.6a126.4,126.4,0,0,1-13.4,1V309c.2,5.6,1.7,9.9,4.5,13l.9.9v-9.7h26.9a22,22,0,0,0,.7-5.8V253.2h0V156.4h29.8v94.4h0v62.4h23.6V156.4h27.4V176c.2-.6.5-1.1.7-1.6a34.7,34.7,0,0,1,12.3-14.2,32.9,32.9,0,0,1,18.6-5.2,38.8,38.8,0,0,1,21.9,6.4,44.4,44.4,0,0,1,15.4,17.9,60.8,60.8,0,0,1,0,51.4,43.1,43.1,0,0,1-15.6,17.8,36.6,36.6,0,0,1-11.3,4.9,38.4,38.4,0,0,1,11.7,5.2,45.1,45.1,0,0,1,15.4,17.9,60.8,60.8,0,0,1,0,51.4,43.1,43.1,0,0,1-15.6,17.8A40.4,40.4,0,0,1,1109,352a33.9,33.9,0,0,1-18.5-5,33,33,0,0,1-10.3-10.4v14.2h16.4l21.8,62.6h.8l20.4-62.6H1170Zm119.7-223.3a41.5,41.5,0,0,1,16,16.2,47.1,47.1,0,0,1,5.7,23.1,86.3,86.3,0,0,1-1,12.8h-65.5a29,29,0,0,0,2.3,7.2,18.1,18.1,0,0,0,8.1,8.9A24.9,24.9,0,0,0,1216,329a31.9,31.9,0,0,0,14-3,27.1,27.1,0,0,0,9.8-7.6l15.6,18.4q-5.2,6.4-15.3,10.8a57.1,57.1,0,0,1-22.7,4.4,60.2,60.2,0,0,1-27.3-6,44.2,44.2,0,0,1-18.9-17.4c-4.6-7.6-6.8-16.4-6.8-26.4s2.1-18.6,6.3-26.1a45.6,45.6,0,0,1,17.7-17.7,52.3,52.3,0,0,1,13.3-5.1,51.4,51.4,0,0,1-12.9-4.9,46.4,46.4,0,0,1-18-17.7c-4.3-7.5-6.4-16.2-6.4-25.9a51.9,51.9,0,0,1,6.4-26,45.1,45.1,0,0,1,18-17.7,58.5,58.5,0,0,1,52.8,0,45.3,45.3,0,0,1,18.1,17.7,52,52,0,0,1,6.5,26,51.3,51.3,0,0,1-6.5,25.9,46.7,46.7,0,0,1-18.1,17.7,53,53,0,0,1-14.1,5.2A42.8,42.8,0,0,1,1238.3,257.9Zm141.7-4.7h-27V233.7l-.9,1.8a36.2,36.2,0,0,1-12.1,14.1,32.5,32.5,0,0,1-5.2,2.8h.5l2.8.9v29.2h-1a28.7,28.7,0,0,0-6.4-.8c-5.4,0-9.8,1.3-13.3,4a22.7,22.7,0,0,0-7.8,10.1,33.3,33.3,0,0,0-2.5,12.9v41.8h-29V253.6h28.8v20.8h.8l.9-2.6a35.6,35.6,0,0,1,9.5-14.5,19.8,19.8,0,0,1,3.4-2.5,38.8,38.8,0,0,1-21.8-6.5,44.3,44.3,0,0,1-15.4-17.9,61.5,61.5,0,0,1,0-51.3,44.3,44.3,0,0,1,15.4-17.7,39.1,39.1,0,0,1,22-6.4,33,33,0,0,1,18.3,5,33.3,33.3,0,0,1,10.3,10.5V118.8H1380Zm112.6-40.4h-65.4a29,29,0,0,0,2.2,7.2,19.1,19.1,0,0,0,8.1,8.9,25.2,25.2,0,0,0,12.1,2.9,31.6,31.6,0,0,0,14-3,27.1,27.1,0,0,0,9.8-7.6l15.6,18.4q-5.2,6.5-15.3,10.8a56.7,56.7,0,0,1-22.7,4.4,60.8,60.8,0,0,1-27.3-6,44.2,44.2,0,0,1-18.9-17.4A50.9,50.9,0,0,1,1398,205q0-14.9,6.3-26.1a45.6,45.6,0,0,1,17.7-17.7,50.7,50.7,0,0,1,25.4-6.4c9.5,0,17.6,2,24.5,5.9a40.9,40.9,0,0,1,16,16.2,47.1,47.1,0,0,1,5.7,23.1A74.7,74.7,0,0,1,1492.6,212.8Z" fill="#0c1c2a"/>
  </g>
  <rect x="-10" width="2020" height="600" fill="#0c1c2a" opacity="0.4"/>
</svg>
