<svg xmlns="http://www.w3.org/2000/svg" width="2000" height="600" viewBox="0 0 2000 600"><title>ed-sans-reveal</title><g opacity="0.7"><path d="M207.6,126.9h91.8c3.7,0,5.9,2.2,5.9,5.8v18.8c0,3.7-2.2,5.9-5.9,5.9H238.1v32.5h52.5c3.7,0,5.9,2.2,5.9,5.8v18.8c0,3.7-2.2,5.9-5.9,5.9H238.1v32.2h63.8c3.6,0,5.8,2.2,5.8,5.9V277c0,3.7-2.2,5.9-5.8,5.9H207.6c-3.6,0-5.8-2.2-5.8-5.9V132.7C201.8,129.1,204,126.9,207.6,126.9Z" fill="#fff"/><path d="M348,126.9h40.5c51.1,0,84,23.4,84,77.1s-32.9,78.9-82,78.9H348c-3.7,0-5.9-2.2-5.9-5.9V132.7C342.1,129.1,344.3,126.9,348,126.9ZM434.9,204c0-37.3-19.3-47.8-48.6-47.8h-7.8v97.6h7.8C415.6,253.8,434.9,241.6,434.9,204Z" fill="#fff"/><path d="M560.6,126.9h30.6c3.1,0,5.6,1.2,6.8,4.4l24.7,57.6c3.1,9,6.1,18.8,9.5,28.3h1c3.4-9.5,6.1-19.3,9.2-28.3l24.7-57.6c1.2-3.2,3.7-4.4,6.8-4.4h30.5c3.7,0,5.9,2.2,5.9,5.8V277c0,3.7-2.2,5.9-5.9,5.9H682.2c-3.6,0-5.8-2.2-5.8-5.9V230.4a490.8,490.8,0,0,1,2.4-50h-1l-13.9,33.2L649,247.5c-1.2,3.2-3.6,4.4-6.8,4.4H622.9a6.7,6.7,0,0,1-6.8-4.4l-15.7-33.9-13.1-33.2H586a491.1,491.1,0,0,1,2.7,50V277c0,3.7-2.2,5.9-5.8,5.9H560.6c-3.6,0-5.8-2.2-5.8-5.9V132.7C554.8,129.1,557,126.9,560.6,126.9Z" fill="#fff"/><path d="M757.2,126.9h24.6c3.7,0,5.9,2.2,5.9,5.8V277c0,3.7-2.2,5.9-5.9,5.9H757.2c-3.7,0-5.9-2.2-5.9-5.9V132.7C751.3,129.1,753.5,126.9,757.2,126.9Z" fill="#fff"/><path d="M819.9,205.7c0-50,37.1-81.3,82.8-81.3,21.5,0,39.5,7.1,52.5,19.3,2.7,2.5,2.7,5.4.5,8.3l-13.2,16.1c-2.5,3.2-5.4,3-8.3-.2-7.1-7.6-17.4-12.2-30-12.2-26.2,0-46.9,19.5-46.9,50.3s20.7,49.3,46.9,49.3c12.4,0,22.7-4.6,30-12.2,2.9-3.2,5.8-3.2,8.3,0l12.9,16.1c2.2,2.9,2.5,5.6.3,7.6-12.5,12.2-30.8,19.8-53,19.8C857,286.6,819.9,255.6,819.9,205.7Z" fill="#fff"/><path d="M1110.9,282.9h-28.3c-3.2,0-5.6-1.2-7.1-3.9l-28-48.6h-23V277c0,3.7-2.2,5.9-5.8,5.9H994c-3.7,0-5.9-2.2-5.9-5.9V132.7c0-3.6,2.2-5.8,5.9-5.8h50.8c36.6,0,65.9,12.4,65.9,49.8,0,23.2-11.2,38.3-28.1,46.4l32.2,52.7C1117.3,279.7,1115.6,282.9,1110.9,282.9Zm-86.4-81.1h19.1c21.2,0,31.2-8.7,31.2-24.1s-11.2-22-32.2-22h-18.1Z" fill="#fff"/><path d="M1208.4,124.2c44.9,0,75.9,29.3,75.9,79.8s-31,81.8-75.9,81.8-75.5-30.7-75.5-81.8S1163.7,124.2,1208.4,124.2Zm0,31c-23.2,0-38.1,18.1-38.1,48.8s14.9,50.6,38.1,50.6,38.3-19.6,38.3-50.6S1231.8,155.2,1208.4,155.2Z" fill="#fff"/><path d="M136.8,330.9h24.6c3.7,0,5.9,2.2,5.9,5.8V456.6h60.8c3.6,0,5.8,2.2,5.8,5.9V481c0,3.7-2.2,5.9-5.8,5.9H136.8c-3.7,0-5.9-2.2-5.9-5.9V336.7C130.9,333.1,133.1,330.9,136.8,330.9Z" fill="#fff"/><path d="M269.3,330.9h91.8c3.7,0,5.9,2.2,5.9,5.8v18.8c0,3.7-2.2,5.9-5.9,5.9H299.9v32.5h52.4c3.7,0,5.9,2.2,5.9,5.8v18.8c0,3.7-2.2,5.9-5.9,5.9H299.9v32.2h63.7c3.6,0,5.8,2.2,5.8,5.9V481c0,3.7-2.2,5.9-5.8,5.9H269.3c-3.6,0-5.8-2.2-5.8-5.9V336.7C263.5,333.1,265.7,330.9,269.3,330.9Z" fill="#fff"/><path d="M499.6,482l-9.3-28.6H430.7L421.4,482c-.9,3.4-3.1,4.9-6.6,4.9H389.5c-4.2,0-6.1-2.9-4.7-6.8l52.8-144.6c1.2-3.1,3.1-4.6,6.5-4.6h34c3.4,0,5.4,1.5,6.6,4.6l52.7,144.6c1.5,3.9-.5,6.8-4.6,6.8H506.2C502.7,486.9,500.5,485.4,499.6,482Zm-18.3-56.6L475.9,409c-5.1-15.4-10.3-29-14.9-44.7h-1.2c-4.7,15.9-10,31-14.7,44.7l-5.3,16.4Z" fill="#fff"/><path d="M682.2,486.9H653.9c-3.2,0-5.7-1.2-7.1-3.9l-28.1-48.6H595.8V481c0,3.7-2.2,5.9-5.9,5.9H565.2c-3.6,0-5.8-2.2-5.8-5.9V336.7c0-3.6,2.2-5.8,5.8-5.8H616c36.6,0,65.9,12.4,65.9,49.8,0,23.2-11.2,38.3-28,46.4l32.2,52.7C688.5,483.7,686.8,486.9,682.2,486.9Zm-86.4-81.1h19c21.2,0,31.2-8.7,31.2-24.1s-11.2-22-32.2-22h-18Z" fill="#fff"/><path d="M721.2,330.9h26.9c3.2,0,5.4,1,7.1,3.9l42.7,72.5,16.4,34.2h.9c-1.7-16.6-4.6-38.6-4.6-57.1V336.7c0-3.6,2.2-5.8,5.9-5.8h23.2c3.6,0,5.8,2.2,5.8,5.8V481c0,3.7-2.2,5.9-5.8,5.9H812.8c-3.2,0-5.6-1.2-7.1-3.9l-42.5-72.5-16.8-34.2h-1c1.7,17.3,4.7,38.6,4.7,57.1V481c0,3.7-2.2,5.9-5.9,5.9h-23c-3.6,0-5.8-2.2-5.8-5.9V336.7C715.4,333.1,717.6,330.9,721.2,330.9Z" fill="#fff"/><path d="M892.4,330.9H917c3.7,0,5.9,2.2,5.9,5.8V481c0,3.7-2.2,5.9-5.9,5.9H892.4c-3.7,0-5.9-2.2-5.9-5.9V336.7C886.5,333.1,888.7,330.9,892.4,330.9Z" fill="#fff"/><path d="M969.8,330.9h26.8c3.2,0,5.4,1,7.1,3.9l42.7,72.5,16.4,34.2h1c-1.7-16.6-4.7-38.6-4.7-57.1V336.7c0-3.6,2.2-5.8,5.9-5.8h23.2c3.6,0,5.8,2.2,5.8,5.8V481c0,3.7-2.2,5.9-5.8,5.9h-26.9c-3.1,0-5.6-1.2-7-3.9l-42.5-72.5-16.9-34.2h-1c1.8,17.3,4.7,38.6,4.7,57.1V481c0,3.7-2.2,5.9-5.9,5.9H969.8c-3.7,0-5.9-2.2-5.9-5.9V336.7C963.9,333.1,966.1,330.9,969.8,330.9Z" fill="#fff"/><path d="M1210.5,328.2c22,0,38.1,7.3,49.6,16.6,2.9,2.2,3.1,5.1.7,8.1l-12,14.1c-2.4,2.7-5.1,3.2-8.3,1-7.3-5.1-16.3-8.8-28.8-8.8-27.6,0-46.9,18.6-46.9,49.3s16.9,50.1,49.9,50.1c7.5,0,15.6-1.7,20-4.4V425.1H1211c-3.7,0-5.9-2.2-5.9-5.8V401.2c0-3.7,2.2-5.9,5.9-5.9h50.5c3.7,0,5.9,2.2,5.9,5.9v64.9a8.1,8.1,0,0,1-3.4,7.1c-12.2,9.5-31.3,16.6-53,16.6-47.6,0-83.8-27.3-83.8-79.8S1164.6,328.2,1210.5,328.2Z" fill="#fff"/></g></svg>