<svg height="600" viewBox="0 0 2000 600" width="2000" xmlns="http://www.w3.org/2000/svg" xmlns:xlink="http://www.w3.org/1999/xlink"><linearGradient id="a" gradientTransform="matrix(-1 0 0 -1 2000 600)" gradientUnits="userSpaceOnUse" x1="1000" x2="1000" y1="593" y2="-3.05"><stop offset="0" stop-color="#fff" stop-opacity=".1"/><stop offset="1" stop-color="#fff"/></linearGradient><path d="m2000 600v-600h-2000v600z" fill="url(#a)" opacity=".2"/><g fill="#fff"><path d="m504 193.7h10.5a2.6 2.6 0 0 1 2.8 2.3l6.2 34c1.3 8 2.6 16 3.7 23.8h.5c1.8-7.8 3.5-15.8 5.2-23.8l9.2-34.1a2.6 2.6 0 0 1 2.8-2.2h8.6a2.6 2.6 0 0 1 2.8 2.2l9.1 34.1 5.2 23.8h.6c1.2-7.9 2.3-15.9 3.6-23.8l6.2-34a2.6 2.6 0 0 1 2.8-2.3h9.4a2.2 2.2 0 0 1 2.4 2.8l-14.2 69.7a2.7 2.7 0 0 1 -2.8 2.4h-14.3a2.9 2.9 0 0 1 -3-2.2l-8.9-34.5c-1.4-5.9-2.5-11.6-3.5-17.3h-.4c-1.1 5.7-2.3 11.4-3.7 17.3l-8.8 34.5a2.7 2.7 0 0 1 -2.9 2.2h-13.8a2.6 2.6 0 0 1 -2.8-2.2l-14.8-69.9a2.1 2.1 0 0 1 2.3-2.8z"/><path d="m655.8 243.4a2.4 2.4 0 0 1 -2.7 2.3h-35.4c1.5 8.6 7 12.8 16.8 12.8a26.2 26.2 0 0 0 11.9-2.7 2.6 2.6 0 0 1 3.5 1.2l2.6 4.6c.8 1.5.6 2.6-.9 3.5a39.3 39.3 0 0 1 -18.9 4.9c-16.5 0-29.9-10.9-29.9-29.5s12.1-29.6 27.6-29.6 25.7 11.7 25.7 27.2a43.3 43.3 0 0 1 -.3 5.3zm-12.8-7.4c0-9-5.4-13.6-12.9-13.6s-11.7 4.8-12.6 13.6z"/><path d="m669.2 266v-75a2.3 2.3 0 0 1 2.5-2.6h10.1a2.4 2.4 0 0 1 2.6 2.6v75a2.4 2.4 0 0 1 -2.6 2.6h-10.1a2.3 2.3 0 0 1 -2.5-2.6z"/><path d="m697 240.5c0-18.2 13.4-29.7 30.3-29.7 7.7 0 14.3 2.5 19 6.7 1.1 1.2 1.3 2.5.2 3.6l-5 6c-1.2 1.3-2.3 1.2-3.6-.1a13.6 13.6 0 0 0 -9.9-3.9c-8.9 0-15.4 7-15.4 17.4s6.5 17.3 15.4 17.3a13.3 13.3 0 0 0 9.9-3.9c1.3-1.1 2.5-1.4 3.7 0l4.8 5.8c1 1.2 1.2 2.3.2 3.3-4.8 4.4-11.4 6.9-19.3 6.9-16.9 0-30.3-11.3-30.3-29.4z"/><path d="m781.3 210.9c15 0 28.9 10.8 28.9 29.6s-13.9 29.4-28.9 29.4-29.1-10.8-29.1-29.4 14-29.6 29.1-29.6zm0 12.3c-8.5 0-13.5 6.8-13.5 17.3s5 17.2 13.5 17.2 13.5-6.7 13.5-17.2-5.2-17.3-13.5-17.3z"/><path d="m825.4 212.3h7.4a2.4 2.4 0 0 1 2.6 2.4l.9 5h.3c4.7-4.8 10-8.9 17.2-8.9s13.1 3.6 15.7 9.9c5-5.4 10.8-9.9 18-9.9 12 0 17.7 8.6 17.7 22.6v32.6a2.4 2.4 0 0 1 -2.6 2.6h-10a2.3 2.3 0 0 1 -2.5-2.6v-30.7c0-8.6-2.4-11.5-7.9-11.5-3.2 0-7.1 2.2-10.8 6.3v35.9a2.4 2.4 0 0 1 -2.6 2.6h-9.9a2.4 2.4 0 0 1 -2.6-2.6v-30.7c0-8.6-2.3-11.5-7.7-11.5-3.1 0-7.2 2.2-10.6 6.2v36a2.4 2.4 0 0 1 -2.6 2.6h-10a2.4 2.4 0 0 1 -2.6-2.6v-51.1a2.4 2.4 0 0 1 2.6-2.6z"/><path d="m970.2 243.4a2.4 2.4 0 0 1 -2.7 2.3h-35.4c1.5 8.6 7.1 12.8 16.8 12.8a25.9 25.9 0 0 0 11.9-2.7 2.7 2.7 0 0 1 3.6 1.2l2.5 4.6c.9 1.5.6 2.6-.9 3.5a39.3 39.3 0 0 1 -18.9 4.9c-16.5 0-29.9-10.9-29.9-29.5s12.1-29.6 27.6-29.6 25.8 11.7 25.8 27.2a42.4 42.4 0 0 1 -.4 5.3zm-12.8-7.4c0-9-5.4-13.6-12.9-13.6s-11.7 4.8-12.6 13.6z"/><path d="m1010.3 224.2h-5.8a2.3 2.3 0 0 1 -2.5-2.6v-6.2a2.3 2.3 0 0 1 2.4-2.6l6.7-.5 1.5-12.4a2.7 2.7 0 0 1 2.8-2.4h7.4a2.3 2.3 0 0 1 2.6 2.5v12.3h12.4a2.4 2.4 0 0 1 2.6 2.6v6.7a2.4 2.4 0 0 1 -2.6 2.6h-12.4v24.5c0 6.5 2.9 9.3 8.3 9.3a13.4 13.4 0 0 0 3.5-.4c1.7-.4 2.9.1 3.2 1.8l1.3 6a2.6 2.6 0 0 1 -1.9 3.2 40.7 40.7 0 0 1 -10.1 1.3c-14 0-19.4-8.5-19.4-21z"/><path d="m1076.3 210.9c15 0 28.9 10.8 28.9 29.6s-13.9 29.4-28.9 29.4-29.1-10.8-29.1-29.4 13.9-29.6 29.1-29.6zm0 12.3c-8.6 0-13.5 6.8-13.5 17.3s4.9 17.2 13.5 17.2 13.4-6.7 13.4-17.2-5.1-17.3-13.4-17.3z"/><path d="m1146.1 193.7h43.5a2.4 2.4 0 0 1 2.6 2.6v7.6a2.4 2.4 0 0 1 -2.6 2.6h-31v18.1h26.5a2.4 2.4 0 0 1 2.6 2.6v7.6a2.3 2.3 0 0 1 -2.6 2.6h-26.5v18.5h32.2a2.3 2.3 0 0 1 2.5 2.6v7.5a2.3 2.3 0 0 1 -2.5 2.6h-44.7a2.4 2.4 0 0 1 -2.6-2.6v-69.7a2.4 2.4 0 0 1 2.6-2.6z"/><path d="m1246.8 188.4h10.2a2.3 2.3 0 0 1 2.5 2.6v75a2.3 2.3 0 0 1 -2.5 2.6h-7.1a2.8 2.8 0 0 1 -2.9-2.1l-1.3-4c-4.6 4.2-10.9 7.4-17.7 7.4-15.4 0-26.1-11-26.1-29.2s13.3-29.9 26.9-29.9c7.2 0 11.6 2.5 15.9 6.1l-.5-8.7v-17.2a2.4 2.4 0 0 1 2.6-2.6zm-2.6 63.1v-23.9a18 18 0 0 0 -12-4.2c-7.7 0-15.5 5.6-15.5 17.1s6.5 17.1 15.2 17.1c5.1 0 8.8-1.7 12.3-6.1z"/><path d="m1295.8 265.2c0 11.4-6.1 20.3-17.3 24.8-1.6.7-2.8.3-3.4-1.4l-1.3-3.5a2.5 2.5 0 0 1 1.4-3.4c6.6-3 10.2-7.8 10.2-13.5h-.9c-5 0-9.6-3.2-9.6-9s4.5-9.1 9.8-9.1c7.1 0 11.1 5.7 11.1 15.1z"/><path d="m1337.4 219.8h-7.1a1.7 1.7 0 0 1 -1.8-1.8v-2.1c0-1.2.5-1.9 1.7-2l7.5-.5.9-14.2c.2-1.3.8-1.7 1.9-1.7h2.8a1.7 1.7 0 0 1 1.9 1.8v14.1h14.9a1.7 1.7 0 0 1 1.9 1.9v2.7a1.7 1.7 0 0 1 -1.9 1.8h-14.9v32.6c0 6.8 2.4 11.1 9.7 11.1a18.3 18.3 0 0 0 5.2-.9c1.3-.5 2-.1 2.3 1.2l.7 2.3a1.7 1.7 0 0 1 -1.2 2.4 35 35 0 0 1 -8.6 1.4c-12.1 0-15.9-7.2-15.9-17.7z"/><path d="m1376.9 187h4.2a1.7 1.7 0 0 1 1.8 1.9v20.9l-.2 11.8c5.8-5.4 11.8-9.6 19.9-9.6 12.5 0 18.1 7.4 18.1 21.4v33.3a1.7 1.7 0 0 1 -1.9 1.9h-4.1a1.7 1.7 0 0 1 -1.9-1.9v-32.3c0-10.7-3.6-15.5-12.3-15.5-6.5 0-11.1 3-17.6 9.3v38.5a1.7 1.7 0 0 1 -1.8 1.9h-4.2a1.7 1.7 0 0 1 -1.9-1.9v-77.8a1.7 1.7 0 0 1 1.9-1.9z"/><path d="m1484.7 242.3a1.9 1.9 0 0 1 -2 1.8h-40.3c1.4 12.2 9.1 19.6 21.3 19.6a28 28 0 0 0 13.9-3.7 1.8 1.8 0 0 1 2.6.7l1.2 2a1.8 1.8 0 0 1 -.7 2.6 35.6 35.6 0 0 1 -17.6 4.7c-16.2 0-28.7-10.8-28.7-29.1s11.6-28.9 26-28.9 24.4 10.8 24.4 26.7c0 1.2 0 2.5-.1 3.6zm-7.2-4.2c0-12.8-7.4-19.8-17.4-19.8s-17.3 7.3-18 19.8z"/><path d="m1517.5 213.4h4.3a2 2 0 0 1 2.1 1.6l8.7 31c1.3 5.2 2.5 10 3.5 15.2h.5c1.3-5.2 2.4-10.1 4-15.2l8.5-31a2.1 2.1 0 0 1 2.1-1.6h5.4a2 2 0 0 1 2.1 1.6l8.8 31c1.3 5.2 2.6 10 4 15.2h.5c1.1-5.2 2.3-10 3.6-15.2l8.4-31a2.1 2.1 0 0 1 2.1-1.6h4a1.6 1.6 0 0 1 1.7 2.1l-14.6 51.4a2 2 0 0 1 -2.1 1.7h-6.8a2.1 2.1 0 0 1 -2.1-1.7l-8.2-29.4c-1.5-5-2.6-9.9-4-15.1h-.4c-1.4 5.2-2.6 10.1-4 15.1l-8.1 29.4a2 2 0 0 1 -2.1 1.7h-6.7a2 2 0 0 1 -2.1-1.5l-14.8-51.6a1.6 1.6 0 0 1 1.7-2.1z"/><path d="m1626.2 212c14.4 0 27.4 10.6 27.4 29s-13 28.9-27.4 28.9-27.3-10.6-27.3-28.9 12.9-29 27.3-29zm0 6.7c-11 0-19 9.1-19 22.3s8 22.3 19 22.3 19.2-8.9 19.2-22.3-8-22.3-19.2-22.3z"/><path d="m1669.9 213.4h3.2a1.6 1.6 0 0 1 1.9 1.7l.6 7.7h.2a19 19 0 0 1 17.5-10.8 16.5 16.5 0 0 1 5.1.8 1.6 1.6 0 0 1 1.4 2.2l-.8 3.5a1.6 1.6 0 0 1 -2.3 1.2 20.2 20.2 0 0 0 -4.5-.7c-6.4 0-12.8 4.1-16.1 13.4v34.3a1.7 1.7 0 0 1 -1.8 1.9h-4.4a1.7 1.7 0 0 1 -1.8-1.9v-51.4a1.7 1.7 0 0 1 1.8-1.9z"/><path d="m1708.7 266.8v-77.9a1.7 1.7 0 0 1 1.9-1.9h4.2a1.7 1.7 0 0 1 1.9 1.9v77.9a1.7 1.7 0 0 1 -1.9 1.9h-4.2a1.7 1.7 0 0 1 -1.9-1.9z"/><path d="m1777.6 187h4.4a1.7 1.7 0 0 1 1.8 1.9v77.8a1.7 1.7 0 0 1 -1.8 1.9h-2.8a1.9 1.9 0 0 1 -2-1.8l-.9-4.9c-5 4.5-11.3 8-19.5 8-15.5 0-25.8-10.7-25.8-28.2s13-29.7 27.6-29.7c7.5 0 12.6 2.6 17.5 6.3l-.3-9.5v-19.9a1.7 1.7 0 0 1 1.8-1.9zm-1.8 68v-30a23.7 23.7 0 0 0 -16-6.3c-11.6 0-20.7 8.8-20.7 22.9s7.1 21.7 19.3 21.7c7 0 12.1-2.9 17.4-8.3z"/><path d="m1814.3 194.3c0 8.4-3.6 14.6-10.2 19.1a1.7 1.7 0 0 1 -2.6-.5l-.5-.8a1.8 1.8 0 0 1 .5-2.6c4.7-3.6 7.2-7.5 7.2-13.8h-1.1c-2.9 0-5.6-1.7-5.6-5.3s2.4-5.8 5.6-5.8 6.7 3.6 6.7 9.7z"/><path d="m1821.1 259.4 2.2-1.9a1.5 1.5 0 0 1 2.6.2c2.9 3.2 7.9 5.8 14.9 5.8 8.7 0 13-4.1 12.9-9.1s-6.8-8.7-13.8-11.1-18.4-6.4-18.4-16.1 7.3-15.2 19.5-15.2c6.9 0 13 2.1 17.4 6.3a1.6 1.6 0 0 1 0 2.6l-2.1 2.1a1.8 1.8 0 0 1 -2.7 0 17.7 17.7 0 0 0 -12.2-4.7c-8 0-11.9 4.2-11.9 8.6s6.5 7.7 13.6 10.2 18.7 6.1 18.7 16.5-7.6 16.4-20.7 16.4c-8.7 0-16-3.3-20.1-8a1.7 1.7 0 0 1 .1-2.6z"/><path d="m505.3 379.4 2.3-1.9c.9-.9 1.7-.8 2.5.2 3 3.2 7.9 5.8 14.9 5.8 8.7 0 13-4.1 12.9-9.1s-6.8-8.7-13.8-11.1-18.4-6.4-18.4-16.1 7.4-15.2 19.5-15.2c7 0 13.1 2.1 17.4 6.3a1.6 1.6 0 0 1 0 2.6l-2.1 2.1a1.8 1.8 0 0 1 -2.7 0 17.7 17.7 0 0 0 -12.2-4.7c-8 0-11.8 4.2-11.8 8.6s6.4 7.7 13.6 10.2 18.6 6.1 18.6 16.5-7.6 16.4-20.6 16.4c-8.8 0-16.1-3.3-20.2-8a1.7 1.7 0 0 1 .1-2.6z"/><path d="m562.5 333.4h2.9a1.8 1.8 0 0 1 2 1.7l.6 6.5h.4c4.5-5.5 10.8-9.6 17-9.6 8.6 0 13.2 4.2 15.2 10.8 5.4-6.4 12.3-10.8 18.4-10.8 11.2 0 16.8 7.4 16.8 21.4v33.3a1.7 1.7 0 0 1 -1.9 1.9h-4.1a1.7 1.7 0 0 1 -1.9-1.9v-32.3c0-10.7-3.3-15.5-10.9-15.5-4.4 0-10.2 3.6-14.9 9.5v38.3a1.7 1.7 0 0 1 -1.9 1.9h-4.3a1.7 1.7 0 0 1 -1.9-1.9v-32.3c0-10.7-3.1-15.5-10.7-15.5-4.5 0-10.1 3.6-14.6 9.3v38.5a1.7 1.7 0 0 1 -1.8 1.9h-4.4a1.7 1.7 0 0 1 -1.9-1.9v-51.4a1.7 1.7 0 0 1 1.9-1.9z"/><path d="m697.4 353.1v33.7a1.7 1.7 0 0 1 -1.9 1.9h-2.7a2 2 0 0 1 -2-1.8l-.7-5.2h-.1c-6.2 4.7-13.1 8.3-21.1 8.3s-17.4-5.4-17.4-15.2c0-12.1 12-19.6 38.2-18.3v-3.7c.1-8.5-4.5-14.7-14.2-14.7a23.1 23.1 0 0 0 -16.3 6.8 1.7 1.7 0 0 1 -2.6.2l-1.8-1.6a1.5 1.5 0 0 1 -.3-2.5c5.2-5.7 13.4-9 21.8-9 13.6 0 21.1 8.3 21.1 21.1zm-26.5 30.8c6.7 0 12-2.8 18.8-8.4v-13.3c-22.4-1.7-30.7 4.4-30.7 12.3s5.5 9.4 11.9 9.4z"/><path d="m717.8 333.4h3.2a1.6 1.6 0 0 1 1.8 1.7l.6 7.7h.2a19.1 19.1 0 0 1 17.5-10.8 17.2 17.2 0 0 1 5.2.8 1.7 1.7 0 0 1 1.4 2.2l-.8 3.5a1.7 1.7 0 0 1 -2.4 1.2 19.3 19.3 0 0 0 -4.4-.7c-6.5 0-12.8 4.1-16.1 13.4v34.3a1.7 1.7 0 0 1 -1.9 1.9h-4.3a1.7 1.7 0 0 1 -1.9-1.9v-51.4a1.7 1.7 0 0 1 1.9-1.9z"/><path d="m758.6 339.8h-7.1a1.7 1.7 0 0 1 -1.8-1.8v-2.1c0-1.2.5-1.9 1.7-2l7.5-.5 1-14.2c.1-1.3.7-1.7 1.8-1.7h2.8a1.7 1.7 0 0 1 1.9 1.8v14.1h14.9a1.7 1.7 0 0 1 1.9 1.9v2.7a1.7 1.7 0 0 1 -1.9 1.8h-14.9v32.6c0 6.8 2.4 11.1 9.7 11.1a18.3 18.3 0 0 0 5.2-.9c1.3-.5 2-.1 2.3 1.2l.8 2.3a1.8 1.8 0 0 1 -1.3 2.4 35 35 0 0 1 -8.6 1.4c-12.1 0-15.9-7.2-15.9-17.7z"/><path d="m840.6 362.3a1.8 1.8 0 0 1 -2 1.8h-40.3c1.4 12.2 9.1 19.6 21.3 19.6a28.4 28.4 0 0 0 14-3.7 1.7 1.7 0 0 1 2.5.7l1.2 2a1.7 1.7 0 0 1 -.7 2.6 35.3 35.3 0 0 1 -17.6 4.7c-16.1 0-28.7-10.8-28.7-29.1s11.6-28.9 26-28.9 24.4 10.8 24.4 26.7c0 1.2 0 2.5-.1 3.6zm-7.1-4.2c0-12.8-7.4-19.8-17.5-19.8s-17.2 7.3-17.9 19.8z"/><path d="m851.4 379.4 2.2-1.9a1.5 1.5 0 0 1 2.6.2c2.9 3.2 7.8 5.8 14.9 5.8 8.6 0 13-4.1 12.9-9.1s-6.8-8.7-13.9-11.1-18.4-6.4-18.4-16.1 7.4-15.2 19.6-15.2c6.9 0 13 2.1 17.3 6.3a1.5 1.5 0 0 1 0 2.6l-2.1 2.1a1.8 1.8 0 0 1 -2.7 0 17.4 17.4 0 0 0 -12.1-4.7c-8 0-11.9 4.2-11.9 8.6s6.5 7.7 13.6 10.2 18.6 6.1 18.6 16.5-7.6 16.4-20.6 16.4c-8.8 0-16-3.3-20.1-8-.9-.9-.7-1.7.1-2.6z"/><path d="m907.4 339.8h-7a1.7 1.7 0 0 1 -1.9-1.8v-2.1a1.8 1.8 0 0 1 1.7-2l7.6-.5.9-14.2c.1-1.3.7-1.7 1.9-1.7h2.8a1.7 1.7 0 0 1 1.8 1.8v14.1h14.9a1.7 1.7 0 0 1 1.9 1.9v2.7a1.7 1.7 0 0 1 -1.9 1.8h-14.9v32.6c0 6.8 2.4 11.1 9.8 11.1a18.2 18.2 0 0 0 5.1-.9c1.3-.5 2-.1 2.4 1.2l.7 2.3a1.8 1.8 0 0 1 -1.3 2.4 34.2 34.2 0 0 1 -8.6 1.4c-12 0-15.9-7.2-15.9-17.7z"/><path d="m969.4 386.8v-77.9a1.7 1.7 0 0 1 1.9-1.9h4.2a1.7 1.7 0 0 1 1.9 1.9v77.9a1.7 1.7 0 0 1 -1.9 1.9h-4.2a1.7 1.7 0 0 1 -1.9-1.9z"/><path d="m1042.5 362.3a1.8 1.8 0 0 1 -2 1.8h-40.3c1.4 12.2 9.2 19.6 21.3 19.6a28.4 28.4 0 0 0 14-3.7 1.8 1.8 0 0 1 2.6.7l1.1 2a1.7 1.7 0 0 1 -.7 2.6 35.2 35.2 0 0 1 -17.5 4.7c-16.2 0-28.8-10.8-28.8-29.1s11.6-28.9 26.1-28.9 24.3 10.8 24.3 26.7c0 1.2 0 2.5-.1 3.6zm-7.1-4.2c0-12.8-7.4-19.8-17.5-19.8s-17.2 7.3-17.9 19.8z"/><path d="m1097.9 353.1v33.7a1.7 1.7 0 0 1 -1.8 1.9h-2.7a1.8 1.8 0 0 1 -2-1.8l-.7-5.2h-.1c-6.2 4.7-13.2 8.3-21.1 8.3-9.5 0-17.5-5.4-17.5-15.2 0-12.1 12.1-19.6 38.2-18.3v-3.7c.1-8.5-4.4-14.7-14.2-14.7a22.7 22.7 0 0 0 -16.2 6.8 1.7 1.7 0 0 1 -2.6.2l-1.9-1.6a1.6 1.6 0 0 1 -.2-2.5c5.1-5.7 13.3-9 21.8-9 13.5 0 21 8.3 21 21.1zm-26.4 30.8c6.6 0 11.9-2.8 18.7-8.4v-13.3c-22.4-1.7-30.7 4.4-30.7 12.3s5.5 9.4 12 9.4z"/><path d="m1118.3 333.4h3.2a1.6 1.6 0 0 1 1.9 1.7l.6 7.7h.2a19 19 0 0 1 17.5-10.8 16.5 16.5 0 0 1 5.1.8 1.6 1.6 0 0 1 1.4 2.2l-.8 3.5a1.6 1.6 0 0 1 -2.3 1.2 20.2 20.2 0 0 0 -4.5-.7c-6.4 0-12.8 4.1-16.1 13.4v34.3a1.7 1.7 0 0 1 -1.8 1.9h-4.4a1.7 1.7 0 0 1 -1.8-1.9v-51.4a1.7 1.7 0 0 1 1.8-1.9z"/><path d="m1158.8 333.4h3a1.7 1.7 0 0 1 1.9 1.7l.6 6.5h.3c4.9-5.5 12.3-9.6 20.1-9.6 12.3 0 18 7.4 18 21.4v33.3a1.7 1.7 0 0 1 -1.9 1.9h-4.2a1.7 1.7 0 0 1 -1.9-1.9v-32.3c0-10.7-3.6-15.5-12.3-15.5-5.9 0-12.5 3.5-17.4 9.3v38.5a1.7 1.7 0 0 1 -1.9 1.9h-4.3a1.7 1.7 0 0 1 -1.9-1.9v-51.4a1.7 1.7 0 0 1 1.9-1.9z"/><path d="m1225.7 310.4c3.3 0 6 2.1 6 5.5s-2.7 5.4-6 5.4-6-2.2-6-5.4 2.7-5.5 6-5.5zm-1.9 23h4.2a1.7 1.7 0 0 1 1.9 1.9v51.4a1.7 1.7 0 0 1 -1.9 1.9h-4.2a1.7 1.7 0 0 1 -1.9-1.9v-51.4a1.7 1.7 0 0 1 1.9-1.9z"/><path d="m1251.6 333.4h3a1.7 1.7 0 0 1 1.9 1.7l.6 6.5h.3c5-5.5 12.3-9.6 20.1-9.6 12.3 0 18 7.4 18 21.4v33.3a1.7 1.7 0 0 1 -1.9 1.9h-4.2a1.7 1.7 0 0 1 -1.8-1.9v-32.3c0-10.7-3.7-15.5-12.4-15.5-5.9 0-12.5 3.5-17.4 9.3v38.5a1.7 1.7 0 0 1 -1.9 1.9h-4.3a1.7 1.7 0 0 1 -1.9-1.9v-51.4a1.7 1.7 0 0 1 1.9-1.9z"/><path d="m1354.2 333.4h2.8a1.7 1.7 0 0 1 1.9 1.9v56.8c0 13.5-9 21.7-24.7 21.7a39.2 39.2 0 0 1 -19.1-5.1 1.7 1.7 0 0 1 -.7-2.5l1.3-2.4a1.8 1.8 0 0 1 2.6-.7 34.4 34.4 0 0 0 16.2 4.4c11.2 0 16.6-6.1 16.6-16.5v-10.5c-4.6 4.2-10.8 7.7-17.8 7.7-14.6 0-24.1-10.3-24.1-28s12-28.2 25.6-28.2c6.8 0 11.7 2.4 16.7 6.7l.6-3.7a2.1 2.1 0 0 1 2.1-1.6zm-3.1 40v-28.5c-5.3-4.5-10.1-6.2-15.3-6.2-10.3 0-18.4 9-18.4 21.4s6.3 21.5 17.5 21.5c5.7 0 10.7-2.7 16.2-8.2z"/><path d="m1453.4 360.9c0 17.8-12.7 29-26.7 29-7.1 0-12-2.4-17.7-6.7v27.4a1.7 1.7 0 0 1 -1.9 1.9h-4.3a1.7 1.7 0 0 1 -1.9-1.9v-75.3a1.7 1.7 0 0 1 1.9-1.9h2.9a1.8 1.8 0 0 1 2 1.7l.7 5.1.2.3c5.1-4.5 11.7-8.5 19.6-8.5 15.1 0 25.2 10.4 25.2 28.9zm-7.9.1c0-13.8-7.1-22.3-18.7-22.3-6.5 0-11.9 2.9-17.6 8.9v28.9c5.7 4.9 11 6.8 16.6 6.8 10.7 0 19.7-9.2 19.7-22.3z"/><path d="m1467.9 386.8v-77.9a1.7 1.7 0 0 1 1.9-1.9h4.2a1.7 1.7 0 0 1 1.9 1.9v77.9a1.7 1.7 0 0 1 -1.9 1.9h-4.2a1.7 1.7 0 0 1 -1.9-1.9z"/><path d="m1538.7 353.1v33.7a1.7 1.7 0 0 1 -1.9 1.9h-2.7a1.8 1.8 0 0 1 -2-1.8l-.7-5.2h-.1c-6.2 4.7-13.1 8.3-21.1 8.3s-17.4-5.4-17.4-15.2c0-12.1 12-19.6 38.2-18.3v-3.7c.1-8.5-4.5-14.7-14.2-14.7a23.1 23.1 0 0 0 -16.3 6.8 1.7 1.7 0 0 1 -2.6.2l-1.9-1.6a1.6 1.6 0 0 1 -.2-2.5c5.2-5.7 13.4-9 21.8-9 13.6 0 21.1 8.3 21.1 21.1zm-26.5 30.8c6.7 0 12-2.8 18.8-8.4v-13.3c-22.4-1.7-30.8 4.4-30.8 12.3s5.6 9.4 12 9.4z"/><path d="m1557.8 339.8h-7a1.7 1.7 0 0 1 -1.9-1.8v-2.1a1.8 1.8 0 0 1 1.7-2l7.5-.5 1-14.2c.1-1.3.7-1.7 1.9-1.7h2.8a1.7 1.7 0 0 1 1.8 1.8v14.1h14.9a1.7 1.7 0 0 1 1.9 1.9v2.7a1.7 1.7 0 0 1 -1.9 1.8h-14.9v32.6c0 6.8 2.4 11.1 9.8 11.1a18.2 18.2 0 0 0 5.1-.9c1.3-.5 2-.1 2.4 1.2l.7 2.3a1.8 1.8 0 0 1 -1.3 2.4 34.2 34.2 0 0 1 -8.6 1.4c-12 0-15.9-7.2-15.9-17.7z"/><path d="m1604.9 323.5v9.9h12.3a1.7 1.7 0 0 1 1.9 1.9v2.7a1.7 1.7 0 0 1 -1.9 1.8h-12.3v46.9a1.7 1.7 0 0 1 -1.9 1.9h-4.1a1.8 1.8 0 0 1 -1.9-1.9v-46.9h-6.2a1.7 1.7 0 0 1 -1.8-1.8v-2.3a1.6 1.6 0 0 1 1.7-1.8l6.3-.5v-10.1c0-11 5.3-17.6 16.1-17.6a23.6 23.6 0 0 1 7.5 1.3 1.8 1.8 0 0 1 1.2 2.4l-.7 2.3c-.4 1.2-1.3 1.5-2.7 1.2a15.1 15.1 0 0 0 -4.6-.7c-6 0-8.9 4-8.9 11.3z"/><path d="m1650.7 332c14.4 0 27.4 10.6 27.4 29s-13 28.9-27.4 28.9-27.3-10.6-27.3-28.9 12.9-29 27.3-29zm0 6.7c-11 0-19 9.1-19 22.3s8 22.3 19 22.3 19.2-8.9 19.2-22.3-8-22.3-19.2-22.3z"/><path d="m1694.4 333.4h3.2a1.6 1.6 0 0 1 1.9 1.7l.6 7.7h.2a19 19 0 0 1 17.5-10.8 16.5 16.5 0 0 1 5.1.8 1.7 1.7 0 0 1 1.4 2.2l-.8 3.5c-.2 1.2-1.2 1.6-2.4 1.2a18.4 18.4 0 0 0 -4.4-.7c-6.5 0-12.8 4.1-16.1 13.4v34.3a1.7 1.7 0 0 1 -1.8 1.9h-4.4a1.7 1.7 0 0 1 -1.8-1.9v-51.4a1.7 1.7 0 0 1 1.8-1.9z"/><path d="m1734.9 333.4h2.9a1.8 1.8 0 0 1 2 1.7l.6 6.5h.3c4.6-5.5 10.8-9.6 17-9.6 8.7 0 13.3 4.2 15.2 10.8 5.4-6.4 12.3-10.8 18.4-10.8 11.3 0 16.8 7.4 16.8 21.4v33.3a1.7 1.7 0 0 1 -1.9 1.9h-4.1a1.8 1.8 0 0 1 -1.9-1.9v-32.3c0-10.7-3.2-15.5-10.8-15.5-4.5 0-10.2 3.6-14.9 9.5v38.3a1.7 1.7 0 0 1 -1.9 1.9h-4.3a1.7 1.7 0 0 1 -1.9-1.9v-32.3c0-10.7-3.2-15.5-10.8-15.5-4.5 0-10.1 3.6-14.5 9.3v38.5a1.7 1.7 0 0 1 -1.9 1.9h-4.3a1.7 1.7 0 0 1 -1.9-1.9v-51.4a1.7 1.7 0 0 1 1.9-1.9z"/><path d="m364.9 288.4c43.5-23.7 37.1-46-11.6-43.4 26.2-41.6 9.7-58.1-31.8-31.9 2.5-48.7-19.8-55.1-43.5-11.6-23.7-43.5-46-37.1-43.5 11.6-41.5-26.2-58-9.7-31.8 31.9-48.7-2.6-55.1 19.7-11.6 43.4-43.5 23.8-37.1 46 11.6 43.5-26.2 41.5-9.7 58 31.8 31.8-2.5 48.7 19.8 55.1 43.5 11.6 23.7 43.5 46 37.1 43.5-11.6 41.5 26.2 58 9.7 31.8-31.8 48.7 2.5 55.1-19.7 11.6-43.5zm-86.9 19c-19.5 16.3-35.3.5-19-19-16.3-19.5-.5-35.3 19-19 19.5-16.3 35.3-.5 19 19 16.3 19.5.5 35.3-19 19z"/></g></svg>