<svg xmlns="http://www.w3.org/2000/svg" width="2000" height="600" viewBox="0 0 2000 600"><title>golumpki-reveal</title><path d="M1713.8,0H1442.3L1217.1,225.1c-16.1-2.5-51.7-26.3-71.2-44.1L1040.7,286.2a1910.9,1910.9,0,0,1,234.1,234.2l105.3-105.2c-11.1-12.7-25.5-33.9-31.4-50.1l26.3-26.3,88.2,39.1-35.6,112c-16.3,41.8-21.8,78.3-19.6,110.1h190.6l-1.3-1.5c-13.6-11.9-20.4-32.3-13.6-61.1l30.6-122.2,196.8,44.1,115.4-115.4c-74.7-61.1-164.6-156.1-224-224l-91.6,91.7c20.3,32.2,44.9,68.7,82.3,102.6L1476,237.9Z" fill="#0c1c2a" opacity="0.7"/><path d="M993.3,328.6,721.9,600h378.5c-8.7-54-11.1-110.9-8.7-173Z" fill="#0c1c2a" opacity="0.7"/><path d="M773.2,5.9c35.6,35.6,34.8,78.9,0,115.4-39.1,37.3-82.3,38.2-118.8,3.4-36.5-38.2-35.7-81.5,3.4-118.8,2-2.1,4-4.1,6-5.9H479.9a196.8,196.8,0,0,0,1.4,60.2H372.7c-62.8,84.8-30.6,168,61.1,257.9L484.7,369c20.3,22.1,35.6,57.7,13.5,81.5-25.4,23.8-76.3,10.2-125.5-37.3-25.5-27.2-38.2-51.8-50.9-76.4,6.7-17,26.3-45,44.1-59.4L260.7,172.2c-61.1,64.5-100.2,103.5-146,145.9l37.4,37.4c28,28,77.2,97.5,125.5,145.9,46.4,46.4,88.3,78.2,126.2,98.6H608a236.8,236.8,0,0,0,26-20.5c67-72.2,59.4-162.9-17-241l-71.2-71.3c-39.9-38.2-57.7-67.9-47.6-88.2l39.9,2.5c7.7,11,17.8,21.2,28,31.4C668.8,317.3,802,328.3,892,240.1a191.9,191.9,0,0,0,44.1-67.9l61.1,71.3L1099,141.6C1045,94.1,996.2,47.6,948.6,0H766.9C769,1.8,771.1,3.8,773.2,5.9Z" fill="#0c1c2a" opacity="0.7"/></svg>