<svg height="600" viewBox="0 0 2000 600" width="2000" xmlns="http://www.w3.org/2000/svg"><g fill="#0c1c2a"><path d="m1713.8 0h-271.5l-225.2 225.1c-16.1-2.5-51.7-26.3-71.2-44.1l-105.2 105.2a1910.9 1910.9 0 0 1 234.1 234.2l105.3-105.2c-11.1-12.7-25.5-33.9-31.4-50.1l26.3-26.3 88.2 39.1-35.6 112c-16.3 41.8-21.8 78.3-19.6 110.1h190.6l-1.3-1.5c-13.6-11.9-20.4-32.3-13.6-61.1l30.6-122.2 196.8 44.1 115.4-115.4c-74.7-61.1-164.6-156.1-224-224l-91.6 91.7c20.3 32.2 44.9 68.7 82.3 102.6l-217.2-76.3z" opacity=".7"/><path d="m993.3 328.6-271.4 271.4h378.5c-8.7-54-11.1-110.9-8.7-173z" opacity=".7"/><path d="m773.2 5.9c35.6 35.6 34.8 78.9 0 115.4-39.1 37.3-82.3 38.2-118.8 3.4-36.5-38.2-35.7-81.5 3.4-118.8 2-2.1 4-4.1 6-5.9h-183.9a196.8 196.8 0 0 0 1.4 60.2h-108.6c-62.8 84.8-30.6 168 61.1 257.9l50.9 50.9c20.3 22.1 35.6 57.7 13.5 81.5-25.4 23.8-76.3 10.2-125.5-37.3-25.5-27.2-38.2-51.8-50.9-76.4 6.7-17 26.3-45 44.1-59.4l-105.2-105.2c-61.1 64.5-100.2 103.5-146 145.9l37.4 37.4c28 28 77.2 97.5 125.5 145.9 46.4 46.4 88.3 78.2 126.2 98.6h204.2a236.8 236.8 0 0 0 26-20.5c67-72.2 59.4-162.9-17-241l-71.2-71.3c-39.9-38.2-57.7-67.9-47.6-88.2l39.9 2.5c7.7 11 17.8 21.2 28 31.4 102.7 104.4 235.9 115.4 325.9 27.2a191.9 191.9 0 0 0 44.1-67.9l61.1 71.3 101.8-101.9c-54-47.5-102.8-94-150.4-141.6h-181.7c2.1 1.8 4.2 3.8 6.3 5.9z" opacity=".7"/></g></svg>