<svg height="600" viewBox="0 0 2000 600" width="2000" xmlns="http://www.w3.org/2000/svg"><path d="m1572 212h6c0-3.4-.2-6.7-.5-10h-6a94.2 94.2 0 0 0 -93.5-84h-360a94.2 94.2 0 0 0 -93.5 84h-6c-.3 3.3-.5 6.6-.5 10h6v408h-6v10h560v-10h-6zm-274-50a10 10 0 1 1 -10 10 10 10 0 0 1 10-10zm-44 54h88a6 6 0 0 1 0 12h-88a6 6 0 0 1 0-12zm-46-4a10 10 0 1 1 -10 10 10 10 0 0 1 10-10zm330 408h-480v-352h480z" fill="#fff" opacity=".2"/><g fill="#0c1c2a"><path d="m1074 412h448v112h-448z" opacity=".12"/><path d="m1017.4 267v56.3c-3.4 0-6.1-1.6-6.1-3.5v-49.3c0-1.9 2.7-3.5 6.1-3.5z" opacity=".12"/><path d="m1017.4 389.8v42.2c-3.4 0-6.1-1.6-6.1-3.5v-35.2c0-1.9 2.7-3.5 6.1-3.5z" opacity=".12"/><path d="m1017.4 479.8v42.2c-3.4 0-6.1-1.6-6.1-3.5v-35.2c0-1.9 2.7-3.5 6.1-3.5z" opacity=".12"/><circle cx="1458" cy="468" opacity=".4" r="40"/><path d="m1058 268h480v128h-480z" opacity=".12"/><path d="m1088 326h80v12h-80z" opacity=".12"/><path d="m1088 296h80v12h-80z" opacity=".12"/><path d="m1088 356h80v12h-80z" opacity=".12"/><path d="m1074 588h175.5v32h-175.5z" opacity=".12"/><path d="m1074 540h256v32h-256z" opacity=".12"/><path d="m1266 588h256v32h-256z" opacity=".12"/><path d="m1346 540h176v32h-176z" opacity=".12"/><path d="m1458 408-12-40a12.5 12.5 0 1 1 24 0z" opacity=".4"/><path d="m1406 438-40.6-9.6a12.5 12.5 0 1 1 5.8-24.4 12.9 12.9 0 0 1 6.2 3.6z" opacity=".4"/><path d="m1406 498-28.6 30.4a12.5 12.5 0 1 1 -18.2-17.2 13 13 0 0 1 6.2-3.6z" opacity=".4"/><path d="m1510 498 40.6 9.6a12.5 12.5 0 0 1 -5.8 24.4 12.9 12.9 0 0 1 -6.2-3.6z" opacity=".4"/><path d="m1510 438 28.6-30.4a12.5 12.5 0 0 1 18.2 17.2 13 13 0 0 1 -6.2 3.6z" opacity=".4"/></g><g fill="#fff" opacity=".1"><path d="m1018 212h6v408h-6z"/><path d="m1572 212h6v408h-6z"/><path d="m1577.5 202a100 100 0 0 0 -99.5-90h-360a100 100 0 0 0 -99.5 90h6a94.2 94.2 0 0 1 93.5-84h360a94.2 94.2 0 0 1 93.5 84z"/></g><circle cx="1298" cy="172" fill="#0c1c2a" opacity=".12" r="10"/><circle cx="1208" cy="222" fill="#0c1c2a" opacity=".12" r="10"/><rect fill="#0c1c2a" height="12" opacity=".12" rx="6" width="100" x="1248" y="216"/></svg>