<svg xmlns="http://www.w3.org/2000/svg" width="2000" height="600" viewBox="0 0 2000 600">
  <title>microns-reveal</title>
  <g opacity="0.7">
    <path d="M526.4,352.2a44.7,44.7,0,0,1-44.8-44.8,46.3,46.3,0,0,1,3.2-16l-23.9-23.9c-7,12.1-11.3,25.8-11.3,39.9a76.8,76.8,0,0,0,76.8,76.8,70.9,70.9,0,0,0,39.7-11.5l-22.9-22.9A61.4,61.4,0,0,1,526.4,352.2Z" fill="#0c1c2a"/>
    <path d="M0,0V600H2000V0ZM1626.4,166.6v51.2H1524v53.6L1419.2,166.6Zm-597.6-12.8c75.2,8.8,134.4,76.8,134.4,153.6,0,20-6.4,50.4-15.2,68l-29.6-29.6c3.2-10.4,6.4-28,6.4-38.4,0-56.8-42.4-107.2-96-115.2Zm57.6,153.6v3.2L1032,256.2V233.8C1064,243.4,1086.4,272.2,1086.4,307.4ZM996.8,153.8v64l-31.2-33.6ZM657.6,464.2l-59.1-59.1c-21,11.5-45.1,17.5-72.1,17.5-69.6,0-130.4-47.2-166.4-115.2,14.9-27.7,42.4-61.6,64-76.8l-54.4-54.4,25.6-25.6,288,288Zm-1.6-104-52.8-52.8a76.8,76.8,0,0,0-76.8-76.8L492,196.2c12-2.4,24-4,34.4-4,72.8,0,132,51.2,166.4,115.2C687.2,320.2,672,343.4,656,360.2Zm484.8,104-35.5-35.5c-22.7,16.5-52,29.5-76.5,32.3V422.6c15.5-2,33.9-10.3,49.1-21.3l-81.1-81.1V461l-89.6-89.6H856v-128h64l-67.2-67.2,25.6-25.6,288,288Zm473.6,0L1524,373.8v74.4h-52.8V321L1326.4,176.2l25.6-25.6,288,288Z" fill="#0c1c2a"/>
  </g>
</svg>
