<svg xmlns="http://www.w3.org/2000/svg" xmlns:xlink="http://www.w3.org/1999/xlink" width="2000" height="600" viewBox="0 0 2000 600"><defs><linearGradient id="a" x1="1000" y1="395" x2="1000" y2="100" gradientUnits="userSpaceOnUse"><stop offset="0" stop-color="#0c1c2a" stop-opacity="0.1"/><stop offset="1" stop-color="#0c1c2a"/></linearGradient></defs><title>philippa-reveal</title><path d="M1040.3,256.8c-17.6,0-35,8.7-40.6,31.7h74.6C1074.3,271.8,1063.3,256.8,1040.3,256.8Z" fill="#0c1c2a"/><path d="M311,316.2c-15.3.3-28,8.3-28,19s11.3,20,28.7,20c14.6,0,28.6-8.7,28.6-19.7S326.3,316.5,311,316.2Z" fill="#0c1c2a"/><path d="M-10-1V600H2010V-1ZM379,384.8H353l-6.7-14c-7.3,10.4-29.3,18-48.6,18-32.7,0-57.4-21.3-57.4-50.6S267,285.8,305,285.5c10.3.3,23,2,33,6.3v-2.6c0-20.7-8-31.4-30.3-31.4s-38.4,11.4-44,16.7l-20.4-31.7c15-12.3,42.4-21.6,69-21.3,44.4-.3,66.7,23.7,66.7,65.7ZM532.7,267.5c-6-4-16-5-23.4-5-22.3,0-36.3,17-37,37v85.3H426V225.5h37.7l5,27c4.6-14.3,23.3-31,47.6-31,6,0,13,1.3,16.4,3.7ZM675,384.8l-48.3-56-16.4,14.4v41.6H565V167.5h45.3V292.8l59-67.3H722l-68.7,77,70.4,82.3Zm114.7,0H745.3V225.5h44.4ZM767.3,201.5c-15.3,0-27-11.3-27-26.7s11.7-26.6,27-26.6,27,11.3,27,26.6S783,201.5,767.3,201.5Zm173.4,58.3h-36v125h-44v-125H824.3V225.5h36.4v-58h44v58h36Zm171,58.7-112.4.3c4.7,25,21.7,35,42.7,35,15.3,0,31-6,39.3-16.3l24.7,24c-14.7,16-34.7,27.3-62,27.3-47.7,0-87-33.3-87-84.6s38.7-82.7,83-82.7c40,0,75.7,28.7,75.7,74C1115.7,304.8,1114.3,313.2,1111.7,318.5ZM1263,384.8l-48.3-56-16.4,14.4v41.6H1153V167.5h45.3V292.8l59-67.3H1310l-68.7,77,70.4,82.3Zm171.3-125h-36v125h-44v-125H1318V225.5h36.3v-58h44v58h36Zm183,124.4h-37l-4.3-24.7c-8,14.7-24.7,28.7-53,28.7-32.7,0-58.3-20.4-58.3-60.7V224.8H1509v90.4c-.3,24.6,11,36.6,29,36.6,22.7,0,34.7-19.3,35-39.6V224.8h44.3Zm155.4-116.7c-6-4-16-5-23.4-5-22.3,0-36.3,17-37,37v85.3H1666V225.5h37.7l5,27c4.6-14.3,23.3-31,47.6-31,6,0,13,1.3,16.4,3.7Z" fill="#0c1c2a"/><rect x="-10" y="100" width="2020" height="295" fill="url(#a)"/></svg>