<svg height="600" viewBox="0 0 2000 600" width="2000" xmlns="http://www.w3.org/2000/svg" xmlns:xlink="http://www.w3.org/1999/xlink"><linearGradient id="a" gradientUnits="userSpaceOnUse" x1="1000" x2="1000" y1="395" y2="100"><stop offset="0" stop-color="#0c1c2a" stop-opacity=".1"/><stop offset="1" stop-color="#0c1c2a"/></linearGradient><g fill="#0c1c2a"><path d="m1040.3 256.8c-17.6 0-35 8.7-40.6 31.7h74.6c0-16.7-11-31.7-34-31.7z"/><path d="m311 316.2c-15.3.3-28 8.3-28 19s11.3 20 28.7 20c14.6 0 28.6-8.7 28.6-19.7s-14-19-29.3-19.3z"/><path d="m-10-1v601h2020v-601zm389 385.8h-26l-6.7-14c-7.3 10.4-29.3 18-48.6 18-32.7 0-57.4-21.3-57.4-50.6s26.7-52.4 64.7-52.7c10.3.3 23 2 33 6.3v-2.6c0-20.7-8-31.4-30.3-31.4s-38.4 11.4-44 16.7l-20.4-31.7c15-12.3 42.4-21.6 69-21.3 44.4-.3 66.7 23.7 66.7 65.7zm153.7-117.3c-6-4-16-5-23.4-5-22.3 0-36.3 17-37 37v85.3h-46.3v-159.3h37.7l5 27c4.6-14.3 23.3-31 47.6-31 6 0 13 1.3 16.4 3.7zm142.3 117.3-48.3-56-16.4 14.4v41.6h-45.3v-217.3h45.3v125.3l59-67.3h52.7l-68.7 77 70.4 82.3zm114.7 0h-44.4v-159.3h44.4zm-22.4-183.3c-15.3 0-27-11.3-27-26.7s11.7-26.6 27-26.6 27 11.3 27 26.6-11.3 26.7-27 26.7zm173.4 58.3h-36v125h-44v-125h-36.4v-34.3h36.4v-58h44v58h36zm171 58.7-112.4.3c4.7 25 21.7 35 42.7 35 15.3 0 31-6 39.3-16.3l24.7 24c-14.7 16-34.7 27.3-62 27.3-47.7 0-87-33.3-87-84.6s38.7-82.7 83-82.7c40 0 75.7 28.7 75.7 74 0 9.3-1.4 17.7-4 23zm151.3 66.3-48.3-56-16.4 14.4v41.6h-45.3v-217.3h45.3v125.3l59-67.3h52.7l-68.7 77 70.4 82.3zm171.3-125h-36v125h-44v-125h-36.3v-34.3h36.3v-58h44v58h36zm183 124.4h-37l-4.3-24.7c-8 14.7-24.7 28.7-53 28.7-32.7 0-58.3-20.4-58.3-60.7v-102.7h44.3v90.4c-.3 24.6 11 36.6 29 36.6 22.7 0 34.7-19.3 35-39.6v-87.4h44.3zm155.4-116.7c-6-4-16-5-23.4-5-22.3 0-36.3 17-37 37v85.3h-46.3v-159.3h37.7l5 27c4.6-14.3 23.3-31 47.6-31 6 0 13 1.3 16.4 3.7z"/></g><path d="m-10 100h2020v295h-2020z" fill="url(#a)"/></svg>