<svg height="600" viewBox="0 0 2000 600" width="2000" xmlns="http://www.w3.org/2000/svg" xmlns:xlink="http://www.w3.org/1999/xlink"><linearGradient id="a" gradientUnits="userSpaceOnUse" x1="1000" x2="1000" y1="593" y2="-3.05"><stop offset="0" stop-color="#0c1c2a" stop-opacity=".1"/><stop offset="1" stop-color="#0c1c2a"/></linearGradient><path d="m0 0v600h2000v-600z" fill="url(#a)" opacity=".2"/><g fill="#fff" opacity=".3"><path d="m142.1 317.9c2.2 23.1 21.4 46.1 52.5 46.1 24.6 0 42.2-14.7 42.2-30.7 0-20.8-27.5-26.6-53.8-33.3s-64-16.9-64-57.6c0-35.2 30.1-56.3 69.2-56.3 36.8 0 63.7 19.8 70.4 58.9l-28.2 6.4c-3.8-25.9-20.2-39.7-43.5-39.7-21.1 0-37.1 10.6-37.1 29.4 0 22.8 21.1 28.8 48.6 35.9 35.2 8.9 68.2 17.9 67.9 53.7.3 34-28.8 57.6-73 57.6-52.8 0-79.1-34.8-81.9-62.7z"/><path d="m499.2 283.4v101.1h-30.7v-90.9c0-29.4-10.3-38.4-23.1-38.4-19.2 0-33.2 19.2-33.2 52.5v76.8h-30.8v-90.9c0-29.4-10.2-38.4-23-38.4-19.2 0-33.3 19.2-33.3 52.5v76.8h-30.7v-151h24.3l4.2 19.2c11.8-12.5 25.6-23.1 44.5-23.1 16.6 0 32.9 6.1 40.3 25.6 12.1-13.7 26.9-25.6 46.7-25.6 23 0 44.8 11.5 44.8 53.8z"/><path d="m528.6 309c-.3-46.7 29.5-79.4 75.6-79.4 44.1 0 76.1 32.7 75.5 79.4s-31.7 79.3-75.5 79.3c-46.1 0-75.2-33.2-75.6-79.3zm26.9-137h35.9v35.9h-35.9zm93.5 138.3c-.4-30.4-17-55.1-44.8-55.1s-45.2 22.7-44.8 55.1c.3 29.4 16 52.4 44.8 52.4 26.5 0 45.1-22.7 44.8-52.4zm-32-138.3h35.8v35.9h-35.8z"/><path d="m806.4 242.4-11.5 28.2a30.9 30.9 0 0 0 -24.3-12.8c-18.6 0-32 15.7-32 46.1v80.6h-30.8v-151h26.9l1.9 17.6c10-13.8 25.3-21.5 40.4-21.5s25.6 7.4 29.4 12.8z"/><path d="m954.9 255.2-17.9 2.6c5.1 8.9 7.6 19.5 7.6 32 0 41.3-29.4 60.1-67.8 60.1-9.3 0-17.9-.9-25.9-3.5-3.2 6.1-4.8 11.2-4.8 15.1 0 8.3 8.3 11.5 26.9 11.5h34.5c28.5 0 44.2 12.1 42.3 37.1-2.3 28.5-25 42.2-66.6 42.2-46.1 0-71.7-16.6-71.7-40.9a42.4 42.4 0 0 1 12.8-29.8 24.3 24.3 0 0 1 -5.1-15c0-9 4.5-17.9 12.2-30.1-12.5-9.6-19.9-25-19.9-46.7 0-38.4 24.3-60.2 66.6-60.2 13.1 0 24.9 2.3 34.5 6.4l42.3-6.4zm-110.7 138.9c-5.2 5.4-6.1 10.9-5.8 13.4.6 10 7.4 20.5 44.8 20.5 29.8 0 37.1-7.7 37.1-17.9-.3-8.6-6.1-12.8-17.9-12.8h-34.6a90.4 90.4 0 0 1 -23.6-3.2zm68.4-105.6c0-22.7-10.2-34.6-34.5-34.6s-35.9 11.6-35.9 35.9 12.8 35.8 35.9 35.8c20.5 0 34.5-9.9 34.5-37.1z"/><path d="m1113.6 383.2c-3.2 2.6-9.9 3.9-16.6 3.9-13.2 0-21.8-7.7-25.6-18.3-11.2 13.1-34 20.2-51.2 19.5-26.3-.9-45.8-16.9-46.1-39.6-.3-30.4 32.6-52.8 94.7-47.1v-13.1c0-20.8-9.6-33-29.4-33.3s-32.7 10.3-34.6 28.2l-25.6-6.4c2.6-29.8 24.6-47.4 60.2-47.4s57.2 20.8 57.6 60.2v60.1c0 12.2 2.2 15.4 7.6 15.4 1.3 0 3.2-.6 6.4-2.6zm-111.4-206.1c0-18.8 16-34.5 35.9-34.5s35.8 15.7 35.8 34.5-16 34.6-35.8 34.6-35.9-15.7-35.9-34.6zm66.6 162.6v-16.3c-41-3.5-64 4.5-64 21.4 0 10.6 9.9 18.6 23 19.2s32.7-9.3 41-24.3zm-47.4-162.6c0 10 7.4 18 16.7 18s16.6-8 16.6-18-7.3-17.9-16.6-17.9-16.7 8-16.7 17.9z"/><path d="m1157.1 333.3c1.9 13.8 17 29.4 41 29.4 19.2 0 31-7.6 32-19.2.3-13.4-19.2-12.8-44.8-19.2-30.7-7.6-52.5-24.3-52.5-48.6 0-34.6 31.4-46.1 58.9-46.1 32.9 0 56.6 15.4 62.7 47.4l-26.9 6.4c-2.5-17-16-28.2-34.5-28.2-10.3 0-29.5 3.2-29.5 19.2 0 18.3 22.4 21.8 42.3 26.9 25.6 6.4 55 11.5 55 41s-25.9 46-62.7 46c-46.1 0-66.9-28.4-70.4-47.3z"/><path d="m1438.7 307.7c-1.3 47.4-32 80.6-74.2 80.6-21.1 0-38.4-8.6-49.9-23.3l-5.2 19.5h-21.7v-225.3h30.7v74.3l-1.6 15.3c11.2-12.1 27.2-19.2 46.4-19.2 44.8 0 76.8 32 75.5 78.1zm-30.7 0c0-30.7-19.2-52.5-46.1-52.5s-44.8 21.8-44.8 52.5 16.7 55 44.8 55 46.1-23 46.1-55z"/><path d="m1460.5 309c-.3-46.7 29.4-79.4 75.5-79.4 44.2 0 76.2 32.7 75.5 79.4s-31.7 79.3-75.5 79.3c-46.1 0-75.2-33.2-75.5-79.3zm120.3 1.3c-.3-30.4-17-55.1-44.8-55.1s-45.1 22.7-44.8 55.1c.3 29.4 16 52.4 44.8 52.4 26.6 0 45.1-22.7 44.8-52.4z"/><path d="m1738.2 242.4-11.5 28.2a30.7 30.7 0 0 0 -24.3-12.8c-18.6 0-32 15.7-32 46.1v80.6h-30.7v-151h26.9l1.9 17.6c9.9-13.8 25.3-21.5 40.3-21.5s25.6 7.4 29.4 12.8z"/><path d="m1894.4 159.2v225.3h-21.8l-5.1-19.5c-11.5 14.7-28.8 23.3-49.9 23.3-42.2 0-73-33.2-74.2-80.6s30.7-78.1 75.5-78.1c19.2 0 35.2 7.1 46.4 19.2l-1.6-15.3v-74.3zm-29.4 148.5c0-30.7-16.7-52.5-44.8-52.5s-46.1 21.8-46.1 52.5 19.2 55 46.1 55 44.8-23 44.8-55z"/></g></svg>