<svg xmlns="http://www.w3.org/2000/svg" xmlns:xlink="http://www.w3.org/1999/xlink" width="2000" height="600" viewBox="0 0 2000 600"><defs><linearGradient id="a" x1="1000" y1="593" x2="1000" y2="-3.05" gradientUnits="userSpaceOnUse"><stop offset="0" stop-color="#0c1c2a" stop-opacity="0.1"/><stop offset="1" stop-color="#0c1c2a"/></linearGradient></defs><title>svenska-reveal</title><g opacity="0.2"><path d="M0,0V600H2000V0Z" fill="url(#a)"/></g><g opacity="0.3"><path d="M142.1,317.9c2.2,23.1,21.4,46.1,52.5,46.1,24.6,0,42.2-14.7,42.2-30.7,0-20.8-27.5-26.6-53.8-33.3s-64-16.9-64-57.6c0-35.2,30.1-56.3,69.2-56.3,36.8,0,63.7,19.8,70.4,58.9l-28.2,6.4c-3.8-25.9-20.2-39.7-43.5-39.7-21.1,0-37.1,10.6-37.1,29.4,0,22.8,21.1,28.8,48.6,35.9,35.2,8.9,68.2,17.9,67.9,53.7.3,34-28.8,57.6-73,57.6-52.8,0-79.1-34.8-81.9-62.7Z" fill="#fff"/><path d="M499.2,283.4V384.5H468.5V293.6c0-29.4-10.3-38.4-23.1-38.4-19.2,0-33.2,19.2-33.2,52.5v76.8H381.4V293.6c0-29.4-10.2-38.4-23-38.4-19.2,0-33.3,19.2-33.3,52.5v76.8H294.4v-151h24.3l4.2,19.2c11.8-12.5,25.6-23.1,44.5-23.1,16.6,0,32.9,6.1,40.3,25.6,12.1-13.7,26.9-25.6,46.7-25.6C477.4,229.6,499.2,241.1,499.2,283.4Z" fill="#fff"/><path d="M528.6,309c-.3-46.7,29.5-79.4,75.6-79.4,44.1,0,76.1,32.7,75.5,79.4s-31.7,79.3-75.5,79.3C558.1,388.3,529,355.1,528.6,309Zm26.9-137h35.9v35.9H555.5ZM649,310.3c-.4-30.4-17-55.1-44.8-55.1s-45.2,22.7-44.8,55.1c.3,29.4,16,52.4,44.8,52.4C630.7,362.7,649.3,340,649,310.3ZM617,172h35.8v35.9H617Z" fill="#fff"/><path d="M806.4,242.4l-11.5,28.2a30.9,30.9,0,0,0-24.3-12.8c-18.6,0-32,15.7-32,46.1v80.6H707.8v-151h26.9l1.9,17.6c10-13.8,25.3-21.5,40.4-21.5S802.6,237,806.4,242.4Z" fill="#fff"/><path d="M954.9,255.2,937,257.8c5.1,8.9,7.6,19.5,7.6,32,0,41.3-29.4,60.1-67.8,60.1-9.3,0-17.9-.9-25.9-3.5-3.2,6.1-4.8,11.2-4.8,15.1,0,8.3,8.3,11.5,26.9,11.5h34.5c28.5,0,44.2,12.1,42.3,37.1-2.3,28.5-25,42.2-66.6,42.2-46.1,0-71.7-16.6-71.7-40.9a42.4,42.4,0,0,1,12.8-29.8,24.3,24.3,0,0,1-5.1-15c0-9,4.5-17.9,12.2-30.1-12.5-9.6-19.9-25-19.9-46.7,0-38.4,24.3-60.2,66.6-60.2,13.1,0,24.9,2.3,34.5,6.4l42.3-6.4ZM844.2,394.1c-5.2,5.4-6.1,10.9-5.8,13.4.6,10,7.4,20.5,44.8,20.5,29.8,0,37.1-7.7,37.1-17.9-.3-8.6-6.1-12.8-17.9-12.8H867.8A90.4,90.4,0,0,1,844.2,394.1Zm68.4-105.6c0-22.7-10.2-34.6-34.5-34.6s-35.9,11.6-35.9,35.9,12.8,35.8,35.9,35.8C898.6,325.6,912.6,315.7,912.6,288.5Z" fill="#fff"/><path d="M1113.6,383.2c-3.2,2.6-9.9,3.9-16.6,3.9-13.2,0-21.8-7.7-25.6-18.3-11.2,13.1-34,20.2-51.2,19.5-26.3-.9-45.8-16.9-46.1-39.6-.3-30.4,32.6-52.8,94.7-47.1V288.5c0-20.8-9.6-33-29.4-33.3s-32.7,10.3-34.6,28.2L979.2,277c2.6-29.8,24.6-47.4,60.2-47.4s57.2,20.8,57.6,60.2v60.1c0,12.2,2.2,15.4,7.6,15.4,1.3,0,3.2-.6,6.4-2.6ZM1002.2,177.1c0-18.8,16-34.5,35.9-34.5s35.8,15.7,35.8,34.5-16,34.6-35.8,34.6S1002.2,196,1002.2,177.1Zm66.6,162.6V323.4c-41-3.5-64,4.5-64,21.4,0,10.6,9.9,18.6,23,19.2S1060.5,354.7,1068.8,339.7Zm-47.4-162.6c0,10,7.4,18,16.7,18s16.6-8,16.6-18-7.3-17.9-16.6-17.9S1021.4,167.2,1021.4,177.1Z" fill="#fff"/><path d="M1157.1,333.3c1.9,13.8,17,29.4,41,29.4,19.2,0,31-7.6,32-19.2.3-13.4-19.2-12.8-44.8-19.2-30.7-7.6-52.5-24.3-52.5-48.6,0-34.6,31.4-46.1,58.9-46.1,32.9,0,56.6,15.4,62.7,47.4l-26.9,6.4c-2.5-17-16-28.2-34.5-28.2-10.3,0-29.5,3.2-29.5,19.2,0,18.3,22.4,21.8,42.3,26.9,25.6,6.4,55,11.5,55,41s-25.9,46-62.7,46c-46.1,0-66.9-28.4-70.4-47.3Z" fill="#fff"/><path d="M1438.7,307.7c-1.3,47.4-32,80.6-74.2,80.6-21.1,0-38.4-8.6-49.9-23.3l-5.2,19.5h-21.7V159.2h30.7v74.3l-1.6,15.3c11.2-12.1,27.2-19.2,46.4-19.2C1408,229.6,1440,261.6,1438.7,307.7Zm-30.7,0c0-30.7-19.2-52.5-46.1-52.5s-44.8,21.8-44.8,52.5,16.7,55,44.8,55S1408,339.7,1408,307.7Z" fill="#fff"/><path d="M1460.5,309c-.3-46.7,29.4-79.4,75.5-79.4,44.2,0,76.2,32.7,75.5,79.4s-31.7,79.3-75.5,79.3C1489.9,388.3,1460.8,355.1,1460.5,309Zm120.3,1.3c-.3-30.4-17-55.1-44.8-55.1s-45.1,22.7-44.8,55.1c.3,29.4,16,52.4,44.8,52.4C1562.6,362.7,1581.1,340,1580.8,310.3Z" fill="#fff"/><path d="M1738.2,242.4l-11.5,28.2a30.7,30.7,0,0,0-24.3-12.8c-18.6,0-32,15.7-32,46.1v80.6h-30.7v-151h26.9l1.9,17.6c9.9-13.8,25.3-21.5,40.3-21.5S1734.4,237,1738.2,242.4Z" fill="#fff"/><path d="M1894.4,159.2V384.5h-21.8l-5.1-19.5c-11.5,14.7-28.8,23.3-49.9,23.3-42.2,0-73-33.2-74.2-80.6s30.7-78.1,75.5-78.1c19.2,0,35.2,7.1,46.4,19.2l-1.6-15.3V159.2ZM1865,307.7c0-30.7-16.7-52.5-44.8-52.5s-46.1,21.8-46.1,52.5,19.2,55,46.1,55S1865,339.7,1865,307.7Z" fill="#fff"/></g></svg>