<svg height="600" viewBox="0 0 2000 600" width="2000" xmlns="http://www.w3.org/2000/svg"><g fill="#0c1c2a"><path d="m543.2 310h70v20h-70zm-30 0h20v20h-20zm0-40h20v10h-20zm30 30v-10h-30v10zm0-30h10v10h-10zm10 20h10v10h-10zm10-20h10v10h-10zm10 20h10v10h-10zm10-20h10v10h-10zm10 20h10v10h-10zm10-20h10v10h-10zm10 20h10v10h-10zm10-20h10v10h-10zm10 30h20v-30h-10v20h-10zm10 10h-10v10h-10v10h30v-10h-10zm20-70h-160a20.1 20.1 0 0 0 -20 20v80a20.1 20.1 0 0 0 20 20h160a20.1 20.1 0 0 0 20-20v-80a20.1 20.1 0 0 0 -20-20zm0 100h-160v-80h160z" opacity=".4"/><path d="m241.4 240a5 5 0 1 0 0 10 19.6 19.6 0 0 1 19.6 19.6 5 5 0 0 0 10 0 29.7 29.7 0 0 0 -29.6-29.6zm0-45a74.9 74.9 0 0 0 -62.3 116.6l.8 1.4c18.2 26.1 21.5 34.3 21.5 42v30a10 10 0 0 0 10 10h20a10 10 0 1 0 20 0h20a10 10 0 0 0 10-10v-30c0-7.8 3.1-16.1 21.3-42a74.8 74.8 0 0 0 -61.3-118zm20 180h-40v-10h40zm24.9-73.5c-14.7 21-21.4 32.9-23.8 43.5h-11.1v-20a10 10 0 0 0 -20 0v20h-11.2c-2.4-10.3-9-22-23-42.2l-.8-1.3a55 55 0 1 1 100-31.5 55.4 55.4 0 0 1 -10.1 31.5z" opacity=".4"/><path d="m1391.9 200-10 30-10-30a10.5 10.5 0 1 1 20 0zm53.7 30.5-28.3 14.2 14.1-28.3a10.6 10.6 0 0 1 18.9 9.4 10.7 10.7 0 0 1 -4.7 4.7zm16.3 59.5-30-10 30-10a10.5 10.5 0 0 1 6.7 20 11 11 0 0 1 -6.7 0zm-129.5-73.6 14.2 28.3-28.3-14.2a10.6 10.6 0 1 1 9.4-18.9 10.4 10.4 0 0 1 4.7 4.8zm92.3 77a42.3 42.3 0 0 0 2.2-13.4 45.1 45.1 0 0 0 -45-45 44.4 44.4 0 0 0 -33.6 15.3l-1.4-.3a59.8 59.8 0 0 0 -44.7 20.1 10.5 10.5 0 0 0 -13.6 13.2 9.8 9.8 0 0 0 2.7 4.1 60.6 60.6 0 0 0 -4.4 22.6v1.3a40 40 0 0 0 10 78.7h110a49.9 49.9 0 0 0 17.8-96.6zm-42.8-38.4a25 25 0 0 1 25 25 23.2 23.2 0 0 1 -2.4 10.2 46.1 46.1 0 0 0 -11.1 1.9 49.9 49.9 0 0 0 -29.7-29.1 24.8 24.8 0 0 1 18.2-8zm25 115h-110a20.1 20.1 0 0 1 -20-20c0-11 9-20 19.1-20.1l14.2.2-2.5-12a40.1 40.1 0 0 1 31.2-47.3 43.4 43.4 0 0 1 8-.8h.7a40 40 0 0 1 38.5 32.7l.4 1.8a9.8 9.8 0 0 0 9.4 7.1l2.9-.2a28.8 28.8 0 0 1 8.1-1.3 30 30 0 0 1 0 60z" opacity=".4"/><g opacity=".4"><path d="m1802.6 210h-110a30.1 30.1 0 0 0 -30 30v10h-10a10 10 0 0 0 0 20h10v20h-10a10 10 0 0 0 0 20h10v20h-10a10 10 0 0 0 0 20h10v10a30.1 30.1 0 0 0 30 30h110a30 30 0 0 0 30-30v-120a30 30 0 0 0 -30-30zm-120 30a10 10 0 0 1 10-10v20h-10zm0 30h10v20h-10zm0 40h10v20h-10zm0 50v-10h10v20a10 10 0 0 1 -10-10zm130 0a10 10 0 0 1 -10 10h-100v-140h100a10 10 0 0 1 10 10z"/><circle cx="1752.6" cy="285" r="20"/><path d="m1752.6 313.6c-15.6 0-25 7.1-25 14.2 0 3.6 9.4 7.2 25 7.2s25-3.6 25-7.2c0-7.1-9.8-14.2-25-14.2z"/></g><path d="m1060.1 235h-30a30.1 30.1 0 0 0 -30-30h-120a30.1 30.1 0 0 0 -30 30v70a30.1 30.1 0 0 0 30 30v30l30-30a30.1 30.1 0 0 0 30 30h80l30 30v-30h10a30.1 30.1 0 0 0 30-30v-70a30.1 30.1 0 0 0 -30-30zm-180 80a10.1 10.1 0 0 1 -10-10v-70a10.1 10.1 0 0 1 10-10h120a10.2 10.2 0 0 1 10 10v10h-65a25 25 0 0 0 -25 25v45zm190 20a10.2 10.2 0 0 1 -10 10h-120a10.1 10.1 0 0 1 -10-10v-65a15 15 0 0 1 15-15h115a10.2 10.2 0 0 1 10 10z" opacity=".4"/></g></svg>