<svg xmlns="http://www.w3.org/2000/svg" xmlns:xlink="http://www.w3.org/1999/xlink" width="2000" height="600" viewBox="0 0 2000 600"><defs><filter id="b" x="-10" y="0" width="2020" height="600" filterUnits="userSpaceOnUse" color-interpolation-filters="sRGB"><feFlood flood-color="#fff" result="bg"/><feBlend in="SourceGraphic" in2="bg"/></filter><mask id="a" x="-10" y="0" width="2020" height="600" maskUnits="userSpaceOnUse"><g filter="url(#b)"><path d="M203.6,256.8c11.6,0,16.8-4.3,21.2-12.7L257,254.4c-7.7,20.6-29.6,32.4-52.8,32.4-37.1,0-61.6-22.5-61.6-61.6s24.1-66.6,60-66.6c31.9,0,56.1,22.3,56.1,56.8a73.6,73.6,0,0,1-2.1,16.9H181.8c1.3,17.5,9,24.5,21.8,24.5Zm-.6-67.5c-8.8,0-17.5,5.5-20.5,23h38.9c.1-13.8-6.8-23-18.4-23Z"/><path d="M357.9,226.3l38,58.5H355.4l-24.1-40.1-25,40.1h-40l39.6-58.5-39.6-65.7h40.6l24.3,46.1,22.5-46.1h42.2Z"/><path d="M496.6,280.2c-6.4,3.4-18.5,6-31.2,6-28.2,0-43.3-20.2-43.3-47.1V191.7H401.6V160.6h20.5V127.7l41.3-9.1v42H495v31.1H463.4v44.6c0,8.6,3.6,14.8,12.8,14.8a34.8,34.8,0,0,0,15.5-3.4Z"/><path d="M586,158.6c8.2,0,16,3.4,19,6.6l-6,40.5c-6.1-6.3-13-8.7-19-8.7-13,0-22.9,10.2-22.9,26.8v61H515.9V160.6h35.4l4,20c6.4-12.6,17-22,30.7-22Z"/><path d="M735.3,280.3c-4.6,4.3-15.4,6.5-22.4,6.5-13,0-21-6.5-25.2-15.9-7.5,10.3-21.6,15.9-35.9,15.9-20.9,0-39.7-12.5-39.7-35.3s21.4-40.9,71.8-39v-5.3c-.2-7.9-1.7-18.7-15.1-18.7-9.3,0-15.7,5.8-16.8,14.8l-37.1-4.1c5.4-29.9,25.1-40.6,52.6-40.6,46.6,0,53.5,24.3,53.5,46.7v42.5c0,7,1.5,12,5.9,12a17.1,17.1,0,0,0,7-2.1Zm-71.2-20.8a25.6,25.6,0,0,0,19.8-10.6v-15c-21.6-.8-33.4,3.6-33.4,13.9,0,7.7,6.5,11.6,13.6,11.7Z"/><path d="M802.4,286.7c-37.5,0-60.3-23.4-60.3-64.1s23.9-64,58.9-64c32.3,0,53.3,17.9,56.1,40.9l-35.8,9.4c-2.5-13.2-8.6-19.2-19.2-19.2s-20.6,11-20.3,33.5,8.8,32.5,20.8,32.5,17.4-6.7,19.1-19.2l36,8.5c-3,23.5-21.6,41.8-55.3,41.8Z"/><path d="M990,160.6V284.8H954l-4.1-20.3c-8.7,13-21.8,22.3-39.4,22.3-20.7,0-37.6-13.2-37.6-45.3V160.6h41.2V228c0,13.9,3.8,26,14.3,26s19.6-9.7,20.7-21.1l-.3-72.3Z"/><path d="M1085.2,158.6c8.2,0,16.1,3.4,19,6.6l-6,40.5c-6-6.3-13-8.7-19-8.7-12.9,0-22.8,10.2-22.8,26.8v61h-41.3V160.6h35.5l4,20c6.3-12.6,16.9-22,30.6-22Z"/><path d="M1189.2,158.6c8.2,0,16.1,3.4,19,6.6l-6,40.5c-6-6.3-13-8.7-19-8.7-12.9,0-22.8,10.2-22.8,26.8v61h-41.3V160.6h35.5l4,20c6.3-12.6,16.9-22,30.6-22Z"/><path d="M1223.2,108.8h43.7v34.5h-43.7Zm42.7,51.8V284.8h-41.8V160.6Z"/><path d="M1347.4,286.7c-37.6,0-60.4-23.4-60.4-64.1s24-64,59-64c32.2,0,53.3,17.9,56.1,40.9l-35.9,9.4c-2.4-13.2-8.5-19.2-19.1-19.2s-20.6,11-20.3,33.5,8.8,32.5,20.8,32.5,17.4-6.7,19.1-19.2l36,8.5c-3.1,23.5-21.6,41.8-55.3,41.8Z"/><path d="M1535,160.6V284.8h-36l-4.1-20.3c-8.7,13-21.8,22.3-39.4,22.3-20.7,0-37.7-13.2-37.7-45.3V160.6h41.3V228c0,13.9,3.8,26,14.3,26s19.6-9.7,20.6-21.1l-.2-72.3Z"/><path d="M1562.2,97.9h41.3l-.6,145.6c0,7,1.8,12.9,7.9,12.9,2.8,0,7.3-1.5,10-2.9l1.4,27.2c-5.1,3.7-17.3,6.1-27.2,6.1-22,0-33.3-13.4-33.3-33.3Z"/><path d="M1758.8,280.3c-4.7,4.3-15.4,6.5-22.4,6.5-13,0-21-6.5-25.2-15.9-7.5,10.3-21.6,15.9-35.9,15.9-20.9,0-39.8-12.5-39.8-35.3s21.5-40.9,71.9-39v-5.3c-.2-7.9-1.8-18.7-15.1-18.7-9.3,0-15.7,5.8-16.8,14.8l-37.1-4.1c5.4-29.9,25.1-40.6,52.6-40.6,46.6,0,53.4,24.3,53.4,46.7v42.5c0,7,1.6,12,6,12a17.1,17.1,0,0,0,7-2.1Zm-71.2-20.8a25.6,25.6,0,0,0,19.8-10.6v-15c-21.6-.8-33.5,3.6-33.5,13.9,0,7.7,6.6,11.6,13.7,11.7Z"/><path d="M1843.7,158.6c8.2,0,16.1,3.4,19,6.6l-6,40.5c-6-6.3-13-8.7-19-8.7-12.9,0-22.8,10.2-22.8,26.8v61h-41.3V160.6h35.5l4,20c6.3-12.6,16.9-22,30.6-22Z"/><path d="M151.1,427.6c6.5-37.4,32.9-63.3,65.9-63.3,25.4,0,40.7,15.3,40.3,35.4L243,403.2c0-16.2-10.9-26.8-28.2-26.8-24.9,0-44.1,22-49.5,52-5.7,31.8,8.3,50.3,32.1,50.3,15.8,0,29.6-8.2,37.8-26.1l12.4,2.4c-8.6,22.1-28.1,35.8-52.3,35.8C162.4,490.8,144.7,465.2,151.1,427.6Z"/><path d="M313.8,366.3,292.2,488.8H277.4L299,366.3ZM303,323.6h21.9l-4,22.7H299Z"/><path d="M423.4,374.6,416,388.2c-2.3-6.5-9.9-10.7-17.8-10.7-16.1,0-31.6,17.1-35.8,42.3h0l-12.2,69.1H335.5l21.6-122.5h13.5L368,385.2c9.1-13.5,22.8-20.9,35.2-20.9S422.1,370.9,423.4,374.6Z"/><path d="M426.9,427.6c6.4-37.4,32.8-63.3,65.8-63.3,25.5,0,40.7,15.3,40.4,35.4l-14.4,3.5c0-16.2-10.8-26.8-28.1-26.8-24.9,0-44.1,22-49.5,52-5.8,31.8,8.2,50.3,32.1,50.3,15.8,0,29.5-8.2,37.8-26.1l12.4,2.4c-8.6,22.1-28.1,35.8-52.3,35.8C438.2,490.8,420.4,465.2,426.9,427.6Z"/><path d="M663,366.3,641.4,488.8H628.3l2-18.8.6-3.5c-10.1,13.8-25.1,24.3-44.3,24.3-23.7,0-35.7-16-29.9-49.1L570,366.3h14.7L572.1,438c-3.6,20.3-1,40.5,20.3,40.5s38.8-20.6,42.9-37.3l13-74.9Z"/><path d="M823.2,364.3c18,0,31,9.9,25.1,43.5l-14.3,81H819.3L832.9,412c4.4-25.4-2.6-35.5-15.5-35.5-17.8,0-34.3,19.4-38,34.3l-13.8,78H750.9L764.5,412c4.5-25.4-2.5-35.5-15.4-35.5-18.7,0-35.7,21.1-38.5,36.1h0l-13.4,76.2H682.5l21.6-122.5h13.3l-2.1,19.6c10.4-12.7,22.6-21.6,39.6-21.6,14,0,25,6.1,26.3,24.7,11-14.4,23.8-24.7,42-24.7Z"/><path d="M906.5,303.7h14L892.3,467.1c-.9,5.5.4,11.5,7.2,11.5a29.2,29.2,0,0,0,10-2.2v10.7a38.1,38.1,0,0,1-16,3.7c-16,0-18-12.3-16.2-22.4Z"/><path d="M939.2,427.5c6.2-35.3,35.5-63.2,67.1-63.2s50.9,27.9,44.6,63.4-35.8,63.1-66.8,63.1S933,462.9,939.2,427.5Zm97.2.4c4.9-28.9-9-51.5-32.2-51.5s-45.4,22.7-50.5,51.5,9.1,50.8,32.4,50.8S1031.3,457.2,1036.4,427.9Z"/><path d="M1078.4,427.6c6.4-37.4,32.8-63.3,65.8-63.3,25.5,0,40.7,15.3,40.4,35.4l-14.4,3.5c0-16.2-10.8-26.8-28.1-26.8-24.9,0-44.2,22-49.6,52-5.7,31.8,8.3,50.3,32.2,50.3,15.8,0,29.5-8.2,37.7-26.1l12.5,2.4c-8.7,22.1-28.1,35.8-52.3,35.8C1089.6,490.8,1071.9,465.2,1078.4,427.6Z"/><path d="M1314.5,366.3l-21.6,122.5h-13.1l1.9-18.8.6-3.5c-10,13.8-25,24.3-44.2,24.3-23.7,0-35.7-16-29.9-49.1l13.3-75.4h14.7L1223.6,438c-3.6,20.3-1,40.5,20.3,40.5s38.8-20.6,42.9-37.3l13-74.9Z"/><path d="M1359.2,455c-1.3,7.5-3.8,23.1,14.4,23.1,5.5,0,12.4-1.4,16.1-3.2l1.5,11.2c-5.8,2.9-14.5,4.6-22,4.6-27.6,0-26.9-22.8-24.6-36l3.7-21,9.7-55.3h-17.9l2.1-12.1h17.9l6.5-36.7,15.3-3.2-7.1,39.9h36l-2.1,12.1h-36L1359.2,455Z"/><path d="M1460.8,366.3l-21.6,122.5h-14.8L1446,366.3Zm-10.9-42.7h22l-4,22.7h-22Z"/><path d="M1485,427.5c6.1-35.3,35.5-63.2,67.1-63.2s50.9,27.9,44.6,63.4-35.9,63.1-66.9,63.1S1478.8,462.9,1485,427.5Zm97.1.4c5-28.9-9-51.5-32.2-51.5s-45.3,22.7-50.5,51.5,9.1,50.8,32.4,50.8S1577,457.2,1582.1,427.9Z"/><path d="M1728,413.4l-13.3,75.4H1700l12.6-71.7c3.6-20.3,1-40.5-20.3-40.5s-39.6,21.7-43.1,38.6l-13,73.6h-14.7l21.6-122.5h13l-1.8,19.8-.5,2.5c10.1-13.8,25.1-24.3,44.3-24.3C1721.8,364.3,1733.8,380.2,1728,413.4Z"/><path d="M1766.6,451c-1.4,15.1,10.4,28.1,30.5,28.1,16.2,0,31.4-8.3,33.8-21.5,2.7-15-14.4-20.5-30.7-25.2s-38.2-10.5-33.5-34.9,27.8-33.2,48-33.2c24.9,0,39.6,14.4,37.6,37.7l-13.1,1.5c1.1-15.9-8.1-27.4-26.1-27.4-11.9,0-28.7,5.2-32,21.6s13.6,20.4,27.9,24.6c19.8,5.9,40.7,12.3,36.1,35.3s-26.3,33.2-49.7,33.2c-29.4,0-44.1-17.9-42.3-37.9Z"/></g></mask></defs><title>vernacular-reveal</title><g mask="url(#a)"><rect x="-10" width="2020" height="600" fill="#0c1c2a" opacity="0.7"/></g></svg>