<svg version="1.1" xmlns="http://www.w3.org/2000/svg"
     xmlns:xlink="http://www.w3.org/1999/xlink"
     x="0" y="0" width="256" height="256"
     viewBox="0 0 256 256" >
<style type="text/css">
  line, rect {fill:none;stroke:#0a1826;}
  line, .dash {stroke-dasharray: 1,3; stroke-dashoffset: 0.5}
  .st1 line {stroke-dashoffset: 0;stroke-dasharray: 1; }
  .st0{opacity:0.24;}
  .st1{opacity:0.48;}
  .st3{opacity:0.24;}
  .st6{opacity:0.16;}
  .st7{opacity:0.08;}
</style>

<rect x="0.5" y="0.5" class="st0" width="255" height="255"/>
<g class="st1">
  <line y1="3.5" y2="252.5" x1="32"  x2="32"/>
  <line y1="3.5" y2="252.5" x1="48"  x2="48"/>
  <line y1="3.5" y2="252.5" x1="64"  x2="64"/>
  <line y1="3.5" y2="252.5" x1="80"  x2="80"/>
  <line y1="3.5" y2="252.5" x1="96"  x2="96"/>
  <line y1="3.5" y2="252.5" x1="112" x2="112"/>
  <line y1="3.5" y2="252.5" x1="128" x2="128"/>
  <line y1="3.5" y2="252.5" x1="144" x2="144"/>
  <line y1="3.5" y2="252.5" x1="160" x2="160"/>
  <line y1="3.5" y2="252.5" x1="176" x2="176"/>
  <line y1="3.5" y2="252.5" x1="192" x2="192"/>
  <line y1="3.5" y2="252.5" x1="208" x2="208"/>
  <line y1="3.5" y2="252.5" x1="224" x2="224"/>
</g>
<g class="st1">
  <line x1="3.5" x2="252.5" y1="32"  y2="32"/>
  <line x1="3.5" x2="252.5" y1="48"  y2="48"/>
  <line x1="3.5" x2="252.5" y1="64"  y2="64"/>
  <line x1="3.5" x2="252.5" y1="80"  y2="80"/>
  <line x1="3.5" x2="252.5" y1="96"  y2="96"/>
  <line x1="3.5" x2="252.5" y1="112" y2="112"/>
  <line x1="3.5" x2="252.5" y1="128" y2="128"/>
  <line x1="3.5" x2="252.5" y1="144" y2="144"/>
  <line x1="3.5" x2="252.5" y1="160" y2="160"/>
  <line x1="3.5" x2="252.5" y1="176" y2="176"/>
  <line x1="3.5" x2="252.5" y1="192" y2="192"/>
  <line x1="3.5" x2="252.5" y1="208" y2="208"/>
  <line x1="3.5" x2="252.5" y1="224" y2="224"/>
</g>
<g class="st3">
  <line x1="16" x2="240" y1="40"  y2="40"/>
  <line x1="16" x2="240" y1="56"  y2="56"/>
  <line x1="16" x2="240" y1="72"  y2="72"/>
  <line x1="16" x2="240" y1="88"  y2="88"/>
  <line x1="16" x2="240" y1="104" y2="104"/>
  <line x1="16" x2="240" y1="120" y2="120"/>
  <line x1="16" x2="240" y1="136" y2="136"/>
  <line x1="16" x2="240" y1="152" y2="152"/>
  <line x1="16" x2="240" y1="168" y2="168"/>
  <line x1="16" x2="240" y1="184" y2="184"/>
  <line x1="16" x2="240" y1="200" y2="200"/>
  <line x1="16" x2="240" y1="216" y2="216"/>
</g>
<g class="st7">
  <line x1="16" x2="240" y1="36"  y2="36"/>
  <line x1="16" x2="240" y1="52"  y2="52"/>
  <line x1="16" x2="240" y1="68"  y2="68"/>
  <line x1="16" x2="240" y1="84"  y2="84"/>
  <line x1="16" x2="240" y1="100" y2="100"/>
  <line x1="16" x2="240" y1="116" y2="116"/>
  <line x1="16" x2="240" y1="132" y2="132"/>
  <line x1="16" x2="240" y1="148" y2="148"/>
  <line x1="16" x2="240" y1="164" y2="164"/>
  <line x1="16" x2="240" y1="180" y2="180"/>
  <line x1="16" x2="240" y1="196" y2="196"/>
  <line x1="16" x2="240" y1="212" y2="212"/>
  <line x1="16" x2="240" y1="44"  y2="44"/>
  <line x1="16" x2="240" y1="60"  y2="60"/>
  <line x1="16" x2="240" y1="76"  y2="76"/>
  <line x1="16" x2="240" y1="92"  y2="92"/>
  <line x1="16" x2="240" y1="108" y2="108"/>
  <line x1="16" x2="240" y1="124" y2="124"/>
  <line x1="16" x2="240" y1="140" y2="140"/>
  <line x1="16" x2="240" y1="156" y2="156"/>
  <line x1="16" x2="240" y1="172" y2="172"/>
  <line x1="16" x2="240" y1="188" y2="188"/>
  <line x1="16" x2="240" y1="204" y2="204"/>
  <line x1="16" x2="240" y1="220" y2="220"/>
</g>
<g class="st3">
  <line y1="16" y2="240" x1="40"  x2="40"/>
  <line y1="16" y2="240" x1="56"  x2="56"/>
  <line y1="16" y2="240" x1="72"  x2="72"/>
  <line y1="16" y2="240" x1="88"  x2="88"/>
  <line y1="16" y2="240" x1="104" x2="104"/>
  <line y1="16" y2="240" x1="120" x2="120"/>
  <line y1="16" y2="240" x1="136" x2="136"/>
  <line y1="16" y2="240" x1="152" x2="152"/>
  <line y1="16" y2="240" x1="168" x2="168"/>
  <line y1="16" y2="240" x1="184" x2="184"/>
  <line y1="16" y2="240" x1="200" x2="200"/>
  <line y1="16" y2="240" x1="216" x2="216"/>
</g>
<g class="st7">
  <line y1="16" y2="240" x1="36"  x2="36"/>
  <line y1="16" y2="240" x1="52"  x2="52"/>
  <line y1="16" y2="240" x1="68"  x2="68"/>
  <line y1="16" y2="240" x1="84"  x2="84"/>
  <line y1="16" y2="240" x1="100" x2="100"/>
  <line y1="16" y2="240" x1="116" x2="116"/>
  <line y1="16" y2="240" x1="132" x2="132"/>
  <line y1="16" y2="240" x1="148" x2="148"/>
  <line y1="16" y2="240" x1="164" x2="164"/>
  <line y1="16" y2="240" x1="180" x2="180"/>
  <line y1="16" y2="240" x1="196" x2="196"/>
  <line y1="16" y2="240" x1="212" x2="212"/>
  <line y1="16" y2="240" x1="44"  x2="44"/>
  <line y1="16" y2="240" x1="60"  x2="60"/>
  <line y1="16" y2="240" x1="76"  x2="76"/>
  <line y1="16" y2="240" x1="92"  x2="92"/>
  <line y1="16" y2="240" x1="108" x2="108"/>
  <line y1="16" y2="240" x1="124" x2="124"/>
  <line y1="16" y2="240" x1="140" x2="140"/>
  <line y1="16" y2="240" x1="156" x2="156"/>
  <line y1="16" y2="240" x1="172" x2="172"/>
  <line y1="16" y2="240" x1="188" x2="188"/>
  <line y1="16" y2="240" x1="204" x2="204"/>
  <line y1="16" y2="240" x1="220" x2="220"/>
</g>

<rect class="st0 dash" x="16" y="16" width="224" height="224" />
<circle class="st6" cx="128" cy="128" r="96"/>
<circle class="st6" cx="128" cy="128" r="48"/>
</svg>
