<svg xmlns="http://www.w3.org/2000/svg" xmlns:xlink="http://www.w3.org/1999/xlink" width="128" height="64" viewBox="0 0 128 64">
  <defs>
    <linearGradient id="a" x1="31.88" y1="48.24" x2="38.6" y2="35.06" gradientUnits="userSpaceOnUse">
      <stop offset="0" stop-color="#333" stop-opacity="0"/>
      <stop offset="1" stop-color="#666"/>
    </linearGradient>
    <linearGradient id="b" x1="77.26" y1="42.62" x2="83.01" y2="53.91" gradientUnits="userSpaceOnUse">
      <stop offset="0"/>
      <stop offset="1" stop-color="#333" stop-opacity="0"/>
    </linearGradient>
    <linearGradient id="c" x1="95.36" y1="33.17" x2="93.19" y2="28.92" gradientTransform="matrix(-1, 0, 0, 1, 140.26, 0)" gradientUnits="userSpaceOnUse">
      <stop offset="0"/>
      <stop offset="0.13" stop-color="#323232"/>
      <stop offset="0.31" stop-color="#707070"/>
      <stop offset="0.48" stop-color="#a3a3a3"/>
      <stop offset="0.64" stop-color="#cbcbcb"/>
      <stop offset="0.78" stop-color="#e7e7e7"/>
      <stop offset="0.91" stop-color="#f9f9f9"/>
      <stop offset="1" stop-color="#fff"/>
    </linearGradient>
    <linearGradient id="d" x1="83.33" y1="39.11" x2="81.22" y2="34.97" gradientTransform="translate(-12.3)" xlink:href="#c"/>
  </defs>
  <title>tile-1</title>
  <polygon points="41 12.5 39 11.5 19 21.5 21 22.5 41 12.5" fill="#fff"/>
  <g>
    <polygon points="48 8 16 24 64 48 96 32 48 8" fill="#fff"/>
    <polygon points="0 32 16 24 64 48 64 64 0 32" fill="url(#a)"/>
    <polygon points="96 32 96 48 64 64 64 48 96 32" fill="url(#b)"/>
    <polygon points="40 12 84 34 88 32 44 10 40 12" fill="#ccc"/>
    <polygon points="20 22 64 44 72 40 28 18 20 22" opacity="0.08" fill="url(#c)"/>
    <polygon points="84 34 64 44 56 40 76 30 84 34" opacity="0.08" fill="url(#d)"/>
  </g>
</svg>
