<svg xmlns="http://www.w3.org/2000/svg" xmlns:xlink="http://www.w3.org/1999/xlink" width="128" height="64" viewBox="0 0 128 64">
  <defs>
    <linearGradient id="a" x1="49.23" y1="57.28" x2="56.09" y2="43.82" gradientUnits="userSpaceOnUse">
      <stop offset="0" stop-color="#333" stop-opacity="0"/>
      <stop offset="1" stop-color="#666"/>
    </linearGradient>
    <linearGradient id="b" x1="73.36" y1="44.16" x2="71.2" y2="39.92" gradientTransform="matrix(-1, 0, 0, 1, 140.26, 0)" gradientUnits="userSpaceOnUse">
      <stop offset="0"/>
      <stop offset="0.13" stop-color="#323232"/>
      <stop offset="0.31" stop-color="#707070"/>
      <stop offset="0.48" stop-color="#a3a3a3"/>
      <stop offset="0.64" stop-color="#cbcbcb"/>
      <stop offset="0.78" stop-color="#e7e7e7"/>
      <stop offset="0.91" stop-color="#f9f9f9"/>
      <stop offset="1" stop-color="#fff"/>
    </linearGradient>
  </defs>
  <title>tile-4</title>
  <polygon points="105 44.5 103 43.5 83 53.5 85 54.5 105 44.5" fill="#fff"/>
  <g>
    <polygon points="64 16 32 32 80 56 112 40 64 16" fill="#fff"/>
    <polygon points="32 48.5 32 32 80 56 64 64 32 48.5" fill="url(#a)"/>
    <polygon points="64 24 44 34 40 32 64 20 64 24" fill="#b3b3b3"/>
    <polygon points="64 24 104 44 108 42 64 20 64 24" fill="#ccc"/>
    <polygon points="44 34 84 54 92 50 52 30 44 34" opacity="0.08" fill="url(#b)"/>
  </g>
</svg>
