<svg xmlns="http://www.w3.org/2000/svg" xmlns:xlink="http://www.w3.org/1999/xlink" width="128" height="64" viewBox="0 0 128 64">
  <defs>
    <linearGradient id="a" x1="12.7" y1="38.47" x2="19.3" y2="25.53" gradientTransform="matrix(-1, 0, 0, 1, 128, 0)" gradientUnits="userSpaceOnUse">
      <stop offset="0" stop-color="#333" stop-opacity="0"/>
      <stop offset="1"/>
    </linearGradient>
    <linearGradient id="b" x1="78.56" y1="56.88" x2="71.91" y2="43.82" gradientTransform="matrix(-1, 0, 0, 1, 128, 0)" gradientUnits="userSpaceOnUse">
      <stop offset="0" stop-color="#333" stop-opacity="0"/>
      <stop offset="1" stop-color="#666"/>
    </linearGradient>
    <linearGradient id="c" x1="73.36" y1="44.16" x2="71.2" y2="39.92" gradientTransform="matrix(-1, 0, 0, 1, 140.26, 0)" gradientUnits="userSpaceOnUse">
      <stop offset="0"/>
      <stop offset="0.13" stop-color="#323232"/>
      <stop offset="0.31" stop-color="#707070"/>
      <stop offset="0.48" stop-color="#a3a3a3"/>
      <stop offset="0.64" stop-color="#cbcbcb"/>
      <stop offset="0.78" stop-color="#e7e7e7"/>
      <stop offset="0.91" stop-color="#f9f9f9"/>
      <stop offset="1" stop-color="#fff"/>
    </linearGradient>
    <linearGradient id="d" x1="-421.4" y1="30.61" x2="-424.49" y2="24.54" gradientTransform="translate(515.7)" xlink:href="#c"/>
  </defs>
  <title>tile-6</title>
  <g>
    <polygon points="105 44.5 103 43.5 83 53.5 85 54.5 105 44.5" fill="#fff"/>
    <polygon points="87 12.5 89 11.5 109 21.5 107 22.5 87 12.5" fill="#fff"/>
  </g>
  <g>
    <polygon points="112 24 80 8 32 32 80 56 112 40 96 32 112 24" fill="#fff"/>
    <polygon points="112 40 96 32 112 24 128 32 112 40" fill="url(#a)"/>
    <polygon points="88.3 12 44 34 40 32 84.3 10 88.3 12" fill="#b3b3b3"/>
    <polygon points="32 48 32 32 80 56 64 64 32 48" fill="url(#b)"/>
    <polygon points="44 34 84 54 92 50 52.3 30 44 34" opacity="0.08" fill="url(#c)"/>
    <polygon points="108 22 88 32 88 36 76 30 99.7 18 108 22" opacity="0.08" fill="url(#d)"/>
    <polygon points="88 36 104 44 108 42 88 32 88 36" fill="#ccc"/>
  </g>
</svg>
