<svg xmlns="http://www.w3.org/2000/svg" xmlns:xlink="http://www.w3.org/1999/xlink" width="128" height="64" viewBox="0 0 128 64">
  <defs>
    <linearGradient id="a" x1="72.47" y1="44.92" x2="78.28" y2="56.32" gradientUnits="userSpaceOnUse">
      <stop offset="0"/>
      <stop offset="1" stop-color="#333" stop-opacity="0"/>
    </linearGradient>
    <linearGradient id="b" x1="73.36" y1="44.16" x2="71.2" y2="39.92" gradientTransform="translate(-12.3)" gradientUnits="userSpaceOnUse">
      <stop offset="0"/>
      <stop offset="0.13" stop-color="#323232"/>
      <stop offset="0.31" stop-color="#707070"/>
      <stop offset="0.48" stop-color="#a3a3a3"/>
      <stop offset="0.64" stop-color="#cbcbcb"/>
      <stop offset="0.78" stop-color="#e7e7e7"/>
      <stop offset="0.91" stop-color="#f9f9f9"/>
      <stop offset="1" stop-color="#fff"/>
    </linearGradient>
  </defs>
  <title>tile-8</title>
  <polygon points="23 44.5 25 43.5 45 53.5 43 54.5 23 44.5" fill="#fff"/>
  <g>
    <polygon points="64 16 16 40 48 56 96 32 64 16" fill="#fff"/>
    <polygon points="96 48 96 32 48 56 64 64 96 48" fill="url(#a)"/>
    <polygon points="64 24 84 34 88 32 64 20 64 24" fill="#ccc"/>
    <polygon points="64 24 23.7 44 19.7 42 64 20 64 24" fill="#b3b3b3"/>
    <polygon points="84 34 44 54 36 50 75.7 30 84 34" opacity="0.08" fill="url(#b)"/>
  </g>
</svg>
