<svg xmlns="http://www.w3.org/2000/svg" xmlns:xlink="http://www.w3.org/1999/xlink" width="128" height="64" viewBox="0 0 128 64">
  <defs>
    <linearGradient id="a" x1="12.7" y1="38.47" x2="19.3" y2="25.53" gradientUnits="userSpaceOnUse">
      <stop offset="0" stop-color="#333" stop-opacity="0"/>
      <stop offset="1" stop-color="#666"/>
    </linearGradient>
    <linearGradient id="b" x1="-949.39" y1="30.61" x2="-952.49" y2="24.54" gradientTransform="matrix(-1, 0, 0, 1, -915.74, 0)" gradientUnits="userSpaceOnUse">
      <stop offset="0"/>
      <stop offset="0.13" stop-color="#323232"/>
      <stop offset="0.31" stop-color="#707070"/>
      <stop offset="0.48" stop-color="#a3a3a3"/>
      <stop offset="0.64" stop-color="#cbcbcb"/>
      <stop offset="0.78" stop-color="#e7e7e7"/>
      <stop offset="0.91" stop-color="#f9f9f9"/>
      <stop offset="1" stop-color="#fff"/>
    </linearGradient>
    <linearGradient id="c" x1="-755.39" y1="50.65" x2="-748.61" y2="37.35" gradientTransform="matrix(-1, 0, 0, 1, -664, 0)" gradientUnits="userSpaceOnUse">
      <stop offset="0" stop-color="#333" stop-opacity="0"/>
      <stop offset="1"/>
    </linearGradient>
    <linearGradient id="d" x1="-178.61" y1="38.22" x2="-180.83" y2="33.87" gradientTransform="translate(251.7)" xlink:href="#b"/>
  </defs>
  <title>tile-11</title>
  <g>
    <polygon points="41 12.5 39 11.5 19 21.5 21 22.5 41 12.5" fill="#fff"/>
    <polygon points="23 44.5 25 43.5 45 53.5 43 54.5 23 44.5" fill="#fff"/>
    <polygon points="87 12.5 89 11.5 109 21.5 107 22.5 87 12.5" fill="#fff"/>
  </g>
  <g>
    <g>
      <polygon points="16 24 0 32 16 40 32 32 16 24" fill="url(#a)"/>
      <polygon points="80 8 64 16 48 8 16 24 32 32 16 40 48 56 112 24 80 8" fill="#fff"/>
    </g>
    <polygon points="20 22 40 32 40 36 52 30 28 18 20 22" opacity="0.08" fill="url(#b)"/>
    <polygon points="40 36 24 44 20 42 40 32 40 36" fill="#b3b3b3"/>
    <polygon points="88 12 64 24 64 20 84 10 88 12" fill="#b3b3b3"/>
    <polygon points="40 12 64 24 64 20 44 10 40 12" fill="#ccc"/>
    <polygon points="128 32 112 24 48 56 64 64 128 32" fill="url(#c)"/>
    <polygon points="108 22 44 54 36 50 100 18 108 22" opacity="0.08" fill="url(#d)"/>
  </g>
</svg>
