<svg xmlns="http://www.w3.org/2000/svg" xmlns:xlink="http://www.w3.org/1999/xlink" width="128" height="64" viewBox="0 0 128 64">
  <defs>
    <linearGradient id="a" x1="-491.39" y1="50.65" x2="-484.61" y2="37.35" gradientTransform="translate(528)" gradientUnits="userSpaceOnUse">
      <stop offset="0" stop-color="#333" stop-opacity="0"/>
      <stop offset="1" stop-color="#666"/>
    </linearGradient>
    <linearGradient id="b" x1="-178.61" y1="38.22" x2="-180.83" y2="33.87" gradientTransform="matrix(-1, 0, 0, 1, -123.74, 0)" gradientUnits="userSpaceOnUse">
      <stop offset="0"/>
      <stop offset="0.13" stop-color="#323232"/>
      <stop offset="0.31" stop-color="#707070"/>
      <stop offset="0.48" stop-color="#a3a3a3"/>
      <stop offset="0.64" stop-color="#cbcbcb"/>
      <stop offset="0.78" stop-color="#e7e7e7"/>
      <stop offset="0.91" stop-color="#f9f9f9"/>
      <stop offset="1" stop-color="#fff"/>
    </linearGradient>
  </defs>
  <title>tile-5</title>
  <g>
    <polygon points="105 44.5 103 43.5 83 53.5 85 54.5 105 44.5" fill="#fff"/>
    <polygon points="41 12.5 39 11.5 19 21.5 21 22.5 41 12.5" fill="#fff"/>
  </g>
  <g>
    <polygon points="48 8 16 24 80 56 112 40 48 8" fill="#fff"/>
    <polygon points="0 32 16 24 80 56 64 64 0 32" fill="url(#a)"/>
    <polygon points="20 22 84 54 92 50 28 18 20 22" opacity="0.08" fill="url(#b)"/>
    <polygon points="40 12 104 44 108 42 44 10 40 12" fill="#ccc"/>
  </g>
</svg>
