<svg xmlns="http://www.w3.org/2000/svg" xmlns:xlink="http://www.w3.org/1999/xlink" width="128" height="64" viewBox="0 0 128 64">
  <defs>
    <linearGradient id="a" x1="65.5" y1="64.76" x2="72.03" y2="51.94" gradientUnits="userSpaceOnUse">
      <stop offset="0" stop-color="#333" stop-opacity="0"/>
      <stop offset="1" stop-color="#666"/>
    </linearGradient>
    <linearGradient id="b" x1="-198.5" y1="64.76" x2="-191.97" y2="51.94" gradientTransform="matrix(-1, 0, 0, 1, -136, 0)" gradientUnits="userSpaceOnUse">
      <stop offset="0" stop-color="#333" stop-opacity="0"/>
      <stop offset="1"/>
    </linearGradient>
    <linearGradient id="c" x1="-199.05" y1="48.29" x2="-201.16" y2="44.15" gradientTransform="translate(251.7)" gradientUnits="userSpaceOnUse">
      <stop offset="0"/>
      <stop offset="0.13" stop-color="#323232"/>
      <stop offset="0.31" stop-color="#707070"/>
      <stop offset="0.48" stop-color="#a3a3a3"/>
      <stop offset="0.64" stop-color="#cbcbcb"/>
      <stop offset="0.78" stop-color="#e7e7e7"/>
      <stop offset="0.91" stop-color="#f9f9f9"/>
      <stop offset="1" stop-color="#fff"/>
    </linearGradient>
    <linearGradient id="d" x1="-463.05" y1="48.29" x2="-465.16" y2="44.15" gradientTransform="matrix(-1, 0, 0, 1, -387.74, 0)" xlink:href="#c"/>
  </defs>
  <title>tile-12</title>
  <g>
    <polygon points="105 44.5 103 43.5 83 53.5 85 54.5 105 44.5" fill="#fff"/>
    <polygon points="23 44.5 25 43.5 45 53.5 43 54.5 23 44.5" fill="#fff"/>
  </g>
  <g>
    <polygon points="64 16 16 40 48 56 64 48 80 56 112 40 64 16" fill="#fff"/>
    <polygon points="64 24 24 44 20 42 64 20 64 24" fill="#b3b3b3"/>
    <polygon points="64 24 104 44 108 42 64 20 64 24" fill="#ccc"/>
    <polygon points="64 64 64 48 80 56 64 64" fill="url(#a)"/>
    <polygon points="64 64 64 48 48 56 64 64" fill="url(#b)"/>
    <polygon points="64 44 44 54 36 50 64 36 64 44" opacity="0.08" fill="url(#c)"/>
    <polygon points="64 44 84 54 92 50 64 36 64 44" opacity="0.08" fill="url(#d)"/>
  </g>
</svg>
