<svg xmlns="http://www.w3.org/2000/svg" xmlns:xlink="http://www.w3.org/1999/xlink" width="128" height="64" viewBox="0 0 128 64">
  <defs>
    <linearGradient id="a" x1="65.5" y1="64.76" x2="72.03" y2="51.94" gradientUnits="userSpaceOnUse">
      <stop offset="0" stop-color="#333" stop-opacity="0"/>
      <stop offset="1" stop-color="#666"/>
    </linearGradient>
    <linearGradient id="b" x1="12.7" y1="38.47" x2="19.3" y2="25.53" xlink:href="#a"/>
    <linearGradient id="c" x1="-949.39" y1="30.61" x2="-952.49" y2="24.54" gradientTransform="matrix(-1, 0, 0, 1, -915.74, 0)" gradientUnits="userSpaceOnUse">
      <stop offset="0"/>
      <stop offset="0.13" stop-color="#323232"/>
      <stop offset="0.31" stop-color="#707070"/>
      <stop offset="0.48" stop-color="#a3a3a3"/>
      <stop offset="0.64" stop-color="#cbcbcb"/>
      <stop offset="0.78" stop-color="#e7e7e7"/>
      <stop offset="0.91" stop-color="#f9f9f9"/>
      <stop offset="1" stop-color="#fff"/>
    </linearGradient>
    <linearGradient id="d" x1="-726.03" y1="64.92" x2="-719.9" y2="51.78" gradientTransform="matrix(-1, 0, 0, 1, -664, 0)" gradientUnits="userSpaceOnUse">
      <stop offset="0" stop-color="#333" stop-opacity="0"/>
      <stop offset="1"/>
    </linearGradient>
    <linearGradient id="e" x1="-199.05" y1="48.29" x2="-201.16" y2="44.15" gradientTransform="translate(251.7)" xlink:href="#c"/>
    <linearGradient id="f" x1="-991.05" y1="48.29" x2="-993.16" y2="44.15" xlink:href="#c"/>
  </defs>
  <title>tile-13</title>
  <g>
    <polygon points="105 44.5 103 43.5 83 53.5 85 54.5 105 44.5" fill="#fff"/>
    <polygon points="41 12.5 39 11.5 19 21.5 21 22.5 41 12.5" fill="#fff"/>
    <polygon points="23 44.5 25 43.5 45 53.5 43 54.5 23 44.5" fill="#fff"/>
  </g>
  <g>
    <polygon points="112 40 48 8 16 24 32 32 16 40 48 56 64 48 80 56 112 40" fill="#fff"/>
    <polygon points="64 48 64 64 64 64 80 56 64 48" fill="url(#a)"/>
    <polygon points="16 24 0 32 16 40 32 32 16 24" fill="url(#b)"/>
    <polygon points="20 22 40 32 40 36 52 30 28 18 20 22" opacity="0.08" fill="url(#c)"/>
    <polygon points="40 36 24 44 20 42 40 32 40 36" fill="#b3b3b3"/>
    <polygon points="64 64 64 48 48 56 64 64" fill="url(#d)"/>
    <polygon points="64 44 44 54 36 50 64 36 64 44" opacity="0.08" fill="url(#e)"/>
    <polygon points="64 44 84 54 92 50 64 36 64 44" opacity="0.08" fill="url(#f)"/>
    <polygon points="40 12 104 44 108 42 44 10 40 12" fill="#ccc"/>
  </g>
</svg>
