<svg xmlns="http://www.w3.org/2000/svg" xmlns:xlink="http://www.w3.org/1999/xlink" width="128" height="64" viewBox="0 0 128 64">
  <defs>
    <linearGradient id="a" x1="-491.39" y1="50.65" x2="-484.61" y2="37.35" gradientTransform="matrix(-1, 0, 0, 1, -400, 0)" gradientUnits="userSpaceOnUse">
      <stop offset="0" stop-color="#333" stop-opacity="0"/>
      <stop offset="1"/>
    </linearGradient>
    <linearGradient id="b" x1="-178.61" y1="38.22" x2="-180.83" y2="33.87" gradientTransform="translate(251.7)" gradientUnits="userSpaceOnUse">
      <stop offset="0"/>
      <stop offset="0.13" stop-color="#323232"/>
      <stop offset="0.31" stop-color="#707070"/>
      <stop offset="0.48" stop-color="#a3a3a3"/>
      <stop offset="0.64" stop-color="#cbcbcb"/>
      <stop offset="0.78" stop-color="#e7e7e7"/>
      <stop offset="0.91" stop-color="#f9f9f9"/>
      <stop offset="1" stop-color="#fff"/>
    </linearGradient>
  </defs>
  <title>tile-10</title>
  <g>
    <polygon points="23 44.5 25 43.5 45 53.5 43 54.5 23 44.5" fill="#fff"/>
    <polygon points="87 12.5 89 11.5 109 21.5 107 22.5 87 12.5" fill="#fff"/>
  </g>
  <g>
    <polygon points="80 8 16 40 48 56 112 24 80 8" fill="#fff"/>
    <polygon points="128 32 112 24 48 56 64 64 128 32" fill="url(#a)"/>
    <polygon points="108 22 44 54 36 50 99.7 18 108 22" opacity="0.08" fill="url(#b)"/>
    <polygon points="88 12 24 44 20 42 84 10 88 12" fill="#b3b3b3"/>
  </g>
</svg>
