<svg xmlns="http://www.w3.org/2000/svg" xmlns:xlink="http://www.w3.org/1999/xlink" width="128" height="64" viewBox="0 0 128 64">
  <defs>
    <linearGradient id="a" x1="12.7" y1="38.47" x2="19.3" y2="25.53" gradientUnits="userSpaceOnUse">
      <stop offset="0" stop-color="#333" stop-opacity="0"/>
      <stop offset="1" stop-color="#666"/>
    </linearGradient>
    <linearGradient id="b" x1="72.47" y1="44.92" x2="78.28" y2="56.32" gradientUnits="userSpaceOnUse">
      <stop offset="0"/>
      <stop offset="1" stop-color="#333" stop-opacity="0"/>
    </linearGradient>
    <linearGradient id="c" x1="73.36" y1="44.16" x2="71.2" y2="39.92" gradientTransform="translate(-12.3)" gradientUnits="userSpaceOnUse">
      <stop offset="0"/>
      <stop offset="0.13" stop-color="#323232"/>
      <stop offset="0.31" stop-color="#707070"/>
      <stop offset="0.48" stop-color="#a3a3a3"/>
      <stop offset="0.64" stop-color="#cbcbcb"/>
      <stop offset="0.78" stop-color="#e7e7e7"/>
      <stop offset="0.91" stop-color="#f9f9f9"/>
      <stop offset="1" stop-color="#fff"/>
    </linearGradient>
    <linearGradient id="d" x1="-157.4" y1="30.61" x2="-160.49" y2="24.54" gradientTransform="matrix(-1, 0, 0, 1, -123.74, 0)" xlink:href="#c"/>
  </defs>
  <title>tile-9</title>
  <g>
    <polygon points="41 12.5 39 11.5 19 21.5 21 22.5 41 12.5" fill="#fff"/>
    <polygon points="23 44.5 25 43.5 45 53.5 43 54.5 23 44.5" fill="#fff"/>
  </g>
  <g>
    <polygon points="80 24 48 8 16 24 32 32 16 40 48 56 80 40 96 32 80 24" fill="#fff"/>
    <polygon points="16 40 32 32 16 24 0 32 16 40" fill="url(#a)"/>
    <polygon points="40 12 84 34 88 32 44 10 40 12" fill="#ccc"/>
    <polygon points="96 48 96 32 48 56 64 64 96 48" fill="url(#b)"/>
    <polygon points="84 34 44 54 36 50 76 30 84 34" opacity="0.08" fill="url(#c)"/>
    <polygon points="20 22 40 32 40 36 52 30 28 18 20 22" opacity="0.08" fill="url(#d)"/>
    <polygon points="40 36 24 44 20 42 40 32 40 36" fill="#b3b3b3"/>
  </g>
</svg>
