<svg xmlns="http://www.w3.org/2000/svg" xmlns:xlink="http://www.w3.org/1999/xlink" width="128" height="64" viewBox="0 0 128 64">
  <defs>
    <linearGradient id="a" x1="31.59" y1="48.89" x2="38.33" y2="34.41" gradientTransform="matrix(-1, 0, 0, 1, 128, 0)" gradientUnits="userSpaceOnUse">
      <stop offset="0" stop-color="#333" stop-opacity="0"/>
      <stop offset="1"/>
    </linearGradient>
    <linearGradient id="b" x1="76.73" y1="40.99" x2="83.27" y2="55.01" gradientTransform="matrix(-1, 0, 0, 1, 128, 0)" gradientUnits="userSpaceOnUse">
      <stop offset="0" stop-color="#666"/>
      <stop offset="1" stop-color="#333" stop-opacity="0"/>
    </linearGradient>
    <linearGradient id="c" x1="-168.64" y1="33.17" x2="-170.81" y2="28.92" gradientTransform="translate(251.7)" gradientUnits="userSpaceOnUse">
      <stop offset="0"/>
      <stop offset="0.13" stop-color="#323232"/>
      <stop offset="0.31" stop-color="#707070"/>
      <stop offset="0.48" stop-color="#a3a3a3"/>
      <stop offset="0.64" stop-color="#cbcbcb"/>
      <stop offset="0.78" stop-color="#e7e7e7"/>
      <stop offset="0.91" stop-color="#f9f9f9"/>
      <stop offset="1" stop-color="#fff"/>
    </linearGradient>
    <linearGradient id="d" x1="83.33" y1="39.11" x2="81.22" y2="34.97" gradientTransform="matrix(-1, 0, 0, 1, 140.26, 0)" xlink:href="#c"/>
  </defs>
  <title>tile-2</title>
  <polygon points="87 12.5 89 11.5 109 21.5 107 22.5 87 12.5" fill="#fff"/>
  <g>
    <polygon points="96 32 64 48 32 32 64 16 96 32" fill="#fff"/>
    <polygon points="112 24 80 40 48 24 80 8 112 24" fill="#fff"/>
    <polygon points="128 32 112 24 64 48 64 64 128 32" fill="url(#a)"/>
    <polygon points="32 32 32 48 64 64 64 48 32 32" fill="url(#b)"/>
    <polygon points="88 12 44 34 40 32 84 10 88 12" fill="#b3b3b3"/>
    <polygon points="108 22 64 44 56 40 100 18 108 22" opacity="0.08" fill="url(#c)"/>
    <polygon points="44 34 64 44 72 40 52 30 44 34" opacity="0.08" fill="url(#d)"/>
  </g>
</svg>
